<svg xmlns="http://www.w3.org/2000/svg" width="1074.031" height="445.894" viewBox="0 0 1074.031 445.894">
  <g id="Group_42" data-name="Group 42" transform="translate(-851.009 -415.606)">
    <g id="SvgjsG1169" transform="translate(851.009 415.606)">
      <g id="Group_38" data-name="Group 38">
        <g id="Group_37" data-name="Group 37">
          <g id="Group_36" data-name="Group 36">
            <path id="Path_1" data-name="Path 1" d="M178.4,302.173,152.271,291.98c-14.654-5.362-34.41-14.75-36.64-30.04-1.594-10.729,7.963-19.311,18.8-21.459v32.454l18.478,6.7V240.476c3.824-.536,21.665,1.878,21.665,7.24,0,3.755-9.236,8.316-9.236,20.117s12.108,20.653,26.126,20.653c15.611,0,28.992-7.51,28.992-21.724,0-29.239-40.143-41.04-67.547-41.846v-7.6c.277-2.842.625-5.623,1.029-8.3,1.383-9.057,5.279-18.528,10.293-27.287,5.844-10.161,11.024-15.728,24.659-24.161,13.719-8.5,37.393-10.776,37.393-10.776s-22.911,7.99-37.83,20.08c-10.492,8.5-15.368,16.2-20.265,28.531,9.989.5,32.822-1.817,50.514-13.045,28.788-18.249,35.041-43.141,35.041-43.141s-48.887-20.97-79.44,5.791c-7.227,6.331-11.483,13.688-15.3,20.5-3.841,6.816-10.907,26.1-10.907,26.1,2.335-33.138,14.195-47.613,18.926-61.884,7.427-20.583,10.631-42.987-9.6-69.38C113.694,3.238,29.65,1.654,29.65,1.654s2.656,81.935,37.908,119.952c15.822,17.075,35.157,26.486,51.543,31.634,4.062-23.178,5.766-32.775,1.361-52.813-6.89-31.28-39.689-57.686-39.689-57.686s28.732,14,43.5,37.122c9.574,15,12.313,30.5,12.534,44.748.21,13.618-4.073,48.881-2.241,81.269h-.133v19.581c-35.683,4.025-65.317,28.7-65.954,61.693-.636,30.04,20.393,47.208,65.954,65.177,38.55,13.678,48.107,21.459,48.107,34.066,0,13.949-15.932,23.872-29.629,23.606V370.84l-18.478-5.9V410c-5.1,1.878-31.228-4.291-31.228-9.388,0-2.949,16.89-5.633,16.89-21.459,0-13.143-11.787-24.142-27.72-24.142-17.521,0-30.271,11-30.271,25.749,0,30.31,43.652,44.259,72.329,44.795v21.994h18.478V425.554c41.1-1.878,76.784-25.214,76.784-63.034C229.7,330.606,211.219,314.78,178.4,302.173Z" transform="translate(-29.65 -1.654)" fill="rgba(255,224,101,0.48)"/>
          </g>
        </g>
      </g>
    </g>
    <g id="SvgjsG1171" transform="translate(963.051 460.165)">
      <g id="Group_39" data-name="Group 39">
        <path id="Path_2" data-name="Path 2" d="M49.817,91.006V85.321l52.175-1.953h0q-.767,9.975-.767,18.066h0q0,10.323,1.046,24.867h0q-14.3,3.767-25.076,5.72h0a118.4,118.4,0,0,1-21.449,1.988h0q-23.89,0-37.527-12.59h0Q2.56,107.258,2.56,80.613h0A66.33,66.33,0,0,1,6.71,57.106h0A48.877,48.877,0,0,1,19.719,37.959h0A52.838,52.838,0,0,1,39.947,26.694h0a83.864,83.864,0,0,1,24.867-3.627h0q30.342,0,40.387,19.007h0L90.274,55.886l-2.755-1.221h0a49.6,49.6,0,0,0-3.8-9h0a40.388,40.388,0,0,0-5.406-7.638h0a22.611,22.611,0,0,0-7.917-5.615h0a25.629,25.629,0,0,0-10.288-2.023h0a31.821,31.821,0,0,0-14.02,3h0a29.1,29.1,0,0,0-10.079,7.743h0a43.65,43.65,0,0,0-6.452,11.125h0a58.709,58.709,0,0,0-3.592,12.625h0a80.345,80.345,0,0,0-1.011,12.8h0a68.538,68.538,0,0,0,1.36,13.811h0a50.73,50.73,0,0,0,4.534,12.974h0a41.915,41.915,0,0,0,7.917,11.021h0A35.456,35.456,0,0,0,50.9,123.022h0a46.007,46.007,0,0,0,16.531,2.825h0a91.814,91.814,0,0,0,10.707-.453h0a3.869,3.869,0,0,0,2.406-1.011h0a4.645,4.645,0,0,0,1.221-2.72h0a27.534,27.534,0,0,0,.314-3.313h0q.035-1.4-.07-4.429h0q-.1-3.034-.1-4.464h0V97.912h0a7.164,7.164,0,0,0-.488-2.023h0a3.6,3.6,0,0,0-1.081-1.43h0a10.55,10.55,0,0,0-1.569-1.011h0a9.17,9.17,0,0,0-2.406-.7h0a24.223,24.223,0,0,0-3.1-.419h0q-1.535-.1-4.22-.279h0q-2.651-.139-5.162-.244h0q-2.511-.1-6.452-.349h0q-3.906-.209-7.6-.453Zm92.352-35.295h0V35.344h0q0-3.069-3.8-2.79h0l-30.9,1.5-1.325-1.325V23.8l1.186-1.186h0q5.545.14,20.716.732h0q15.171.593,23.507.593h0q6.871,0,14.334-.244h0q7.463-.279,17.3-.767h0q9.87-.488,14.369-.628h0l1.569,1.5v7.708l-1.709,1.36h0q-.453,0-6.452-.14h0q-6-.174-13.671-.314h0q-7.673-.139-12.276-.14h0a5.033,5.033,0,0,0-2.546.453h0a2.114,2.114,0,0,0-.663,1.848h0V55.711h0q0,29.994,2.616,71.566h0l-22.111,6.313-1.325-1.883h0Q142.169,91.146,142.169,55.711ZM225.1,130.346h0l-19.321,1.639-.314-1.5h0a997.277,997.277,0,0,0,56.813-95h0a1.186,1.186,0,0,0,.139-.732h0q0-.7-.453-.7h0L247.53,32.275V26.415h34.388l17.02,57.267h0q1.395,4.708,2.406,7.952h0q1.011,3.278,2.825,8.37h0a71.673,71.673,0,0,0,3.522,8.545h0a75.5,75.5,0,0,0,3.871,6.871h0a18.368,18.368,0,0,0,4.569,5.162h0a8.258,8.258,0,0,0,4.883,1.744h0a48.975,48.975,0,0,0,8.928-1.186h0l1.116,4.255h0q-6.661,3-9.626,4.255h0a83.163,83.163,0,0,1-8.51,2.79h0a36.2,36.2,0,0,1-9.661,1.569h0a12.856,12.856,0,0,1-5.894-1.325h0a12.013,12.013,0,0,1-4.29-3.8h0a31.306,31.306,0,0,1-2.79-4.778h0a41.924,41.924,0,0,1-1.918-5.441h0l-7.812-27.936h-38.5Q236.963,100.213,225.1,130.346Zm24.448-47.571H275.78a1.961,1.961,0,0,0,.872-.279h0q.523-.244.523-.558h0a7.323,7.323,0,0,0-.14-1.953h0l-9.975-31.458h0a1.4,1.4,0,0,0-1.4-1.186h0q-.628,0-1.36,1.186h0L248.193,80.439h0a2.4,2.4,0,0,0-.314,1.36h0q0,.314.628.628h0a2.132,2.132,0,0,0,1.046.349Zm142.923-9.068h0l-14.16,8.405-2.651-1.081h0a26.38,26.38,0,0,0-3.278-13.637h0Q369.074,61.85,362.2,61.85h0a11.487,11.487,0,0,0-8.266,3.418h0a21.4,21.4,0,0,0-5.3,8.684h0a62.255,62.255,0,0,0-2.616,10.323h0a58.006,58.006,0,0,0-.837,9.521h0a48.158,48.158,0,0,0,.593,7.5h0a37.3,37.3,0,0,0,2.127,7.673h0a31.163,31.163,0,0,0,3.8,6.975h0a16.436,16.436,0,0,0,5.964,4.918h0A17.828,17.828,0,0,0,366,122.778h0q11.614,0,25.355-10.567h0l1.848.453,1.5,2.162h0q-18.484,18.519-39.55,18.519h0a29.667,29.667,0,0,1-12.869-2.651h0a22.127,22.127,0,0,1-8.789-7.185h0a34.332,34.332,0,0,1-4.848-9.94h0a39.633,39.633,0,0,1-1.6-11.335h0a64.767,64.767,0,0,1,1.36-13.392h0a50.666,50.666,0,0,1,4.464-12.555h0a39.312,39.312,0,0,1,7.777-10.6h0a34.4,34.4,0,0,1,11.858-7.219h0a44.112,44.112,0,0,1,15.973-2.755h0a37.907,37.907,0,0,1,8.51.907h0a27.264,27.264,0,0,1,7.429,2.895h0a15.129,15.129,0,0,1,5.615,5.615h0A19.112,19.112,0,0,1,392.476,73.707Zm68.427,0h0l-14.16,8.405-2.616-1.081h0a26.16,26.16,0,0,0-3.313-13.637h0q-3.278-5.545-10.184-5.545h0a11.447,11.447,0,0,0-8.231,3.418h0a21.711,21.711,0,0,0-5.336,8.684h0a67.219,67.219,0,0,0-2.616,10.323h0a60.467,60.467,0,0,0-.8,9.521h0a48.157,48.157,0,0,0,.593,7.5h0a37.3,37.3,0,0,0,2.128,7.673h0a30.183,30.183,0,0,0,3.767,6.975h0a16.834,16.834,0,0,0,5.964,4.918h0a18.039,18.039,0,0,0,8.37,1.918h0q11.614,0,25.32-10.567h0l1.883.453,1.5,2.162h0q-18.519,18.519-39.585,18.519h0a29.581,29.581,0,0,1-12.834-2.651h0a22.4,22.4,0,0,1-8.824-7.185h0a33.66,33.66,0,0,1-4.813-9.94h0a39.632,39.632,0,0,1-1.6-11.335h0a66.409,66.409,0,0,1,1.325-13.392h0A50.659,50.659,0,0,1,401.3,76.288h0a38.934,38.934,0,0,1,7.812-10.6h0a34.455,34.455,0,0,1,11.823-7.219h0a44.215,44.215,0,0,1,16.008-2.755h0a37.909,37.909,0,0,1,8.51.907h0a27.337,27.337,0,0,1,7.394,2.895h0a15.129,15.129,0,0,1,5.615,5.615h0A18.539,18.539,0,0,1,460.9,73.707Zm21.03,22.251h0a60.457,60.457,0,0,0,.453,7.219h0a53.678,53.678,0,0,0,1.709,8.231h0a37.532,37.532,0,0,0,3.209,7.812h0a17.031,17.031,0,0,0,5.371,5.72h0a13.284,13.284,0,0,0,7.673,2.337h0a21.042,21.042,0,0,0,7.324-1.186h0a18.607,18.607,0,0,0,5.3-3h0a14.638,14.638,0,0,0,3.662-4.883h0a38.761,38.761,0,0,0,2.267-5.824h0a40.278,40.278,0,0,0,1.221-6.975h0q.453-4.22.558-7.219h0q.07-2.965.07-7.464h0a50.511,50.511,0,0,0-.907-9.835h0a34.506,34.506,0,0,0-2.93-8.649h0a15.708,15.708,0,0,0-5.789-6.452h0a16.774,16.774,0,0,0-8.963-2.337h0a16.218,16.218,0,0,0-8.3,2.127h0a17.132,17.132,0,0,0-5.789,5.441h0a32.286,32.286,0,0,0-3.627,7.743h0a46.122,46.122,0,0,0-1.988,8.649h0A68.834,68.834,0,0,0,481.933,95.958Zm-19.775.14h0q0-16.775,11.509-27.8h0q11.544-11.021,29.4-11.021h0q17.822,0,27.2,8.405h0q10.254,9.382,10.254,24.134h0a59.469,59.469,0,0,1-2.162,16.636h0a39.518,39.518,0,0,1-5.929,12.416h0a34.025,34.025,0,0,1-9.033,8.37h0a38.546,38.546,0,0,1-11.3,4.848h0a53.82,53.82,0,0,1-13.009,1.5h0q-17.752,0-25.948-7.429h0Q462.158,116.187,462.158,96.1ZM604.837,60.35h0l15.834-5.231,1.779,1.5h0q-.732,17.4-.732,41.956h0q0,.523-.139,2.86h0q-.1,2.3-.14,4.115h0a34.046,34.046,0,0,0,.244,4.325h0a16.147,16.147,0,0,0,.872,4.15h0a7.366,7.366,0,0,0,2.023,2.825h0a5.007,5.007,0,0,0,3.418,1.221h0q3.139,0,10.428-4.359h1.569l1.186,3.069h0q-3.662,3.7-5.65,5.545h0q-1.988,1.883-5.615,4.883h0a31.211,31.211,0,0,1-6.766,4.429h0a14.329,14.329,0,0,1-5.859,1.4h0q-9.452,0-11.091-10.533h0l-1.5-.907h0q-1.046.593-4.569,2.441h0q-3.522,1.814-5.162,2.685h0q-1.674.872-4.813,2.337h0q-3.139,1.43-5.2,2.127h0q-2.058.663-4.569,1.256h0a19.92,19.92,0,0,1-4.534.593h0q-9.521,0-14.927-4.987h0a16.709,16.709,0,0,1-1.5-1.639h0a7.492,7.492,0,0,1-1.116-2.058h0q-.453-1.186-.8-2.162h0a15.253,15.253,0,0,1-.523-2.72h0q-.174-1.779-.279-2.895h0q-.1-1.116-.139-3.488h0q-.07-2.372-.07-3.662h0V105.1h0v-4.569h0q0-1.814.1-5.127h0q.07-3.348.07-4.848h0q0-1.325.035-3.836h0q.035-2.511.035-3.871h0q0-1.36-.035-3.488h0a27.224,27.224,0,0,0-.209-3.313h0q-.139-1.221-.384-2.825h0a7.994,7.994,0,0,0-.767-2.476h0a19.119,19.119,0,0,0-1.081-1.709h0a3.358,3.358,0,0,0-1.535-1.256h0a5.4,5.4,0,0,0-2.058-.384h0q-2.79,0-9.382,4.15h0l-2.162-3.836h0q3.836-2.86,5.755-4.185h0q1.953-1.36,5.545-3.557h0a32.691,32.691,0,0,1,6.661-3.243h0a18.118,18.118,0,0,1,5.72-1.011h0A13.337,13.337,0,0,1,568.74,56.9h0a8.025,8.025,0,0,1,3.592,3.313h0a15.361,15.361,0,0,1,1.639,4.569h0a30.205,30.205,0,0,1,.453,5.545h0q0,2.79-.523,12.242h0q-.523,9.486-.523,14.578h0q0,5.092.279,8.58h0a38.162,38.162,0,0,0,1.221,6.766h0a13.374,13.374,0,0,0,2.511,5.127h0a11.153,11.153,0,0,0,4.255,3h0a16.887,16.887,0,0,0,6.487,1.116h0a20.042,20.042,0,0,0,8.754-1.883h0a49.052,49.052,0,0,0,8.719-5.441h0q.139-6,.139-18.763h0Q605.743,77.23,604.837,60.35Zm53.535,13.5h0q0,16.357.384,33.411h0q.384,17.089,1.116,20.333h0l-16.845,4.848-1.883-1.046h0q1.116-37.6,1.116-44.955h0V85.182h0q0-3.174-.035-4.743h0q-.035-1.569-.174-4.115h0a18.45,18.45,0,0,0-.523-3.871h0q-.384-1.29-.977-2.755h0a4.136,4.136,0,0,0-1.639-2.093h0a4.841,4.841,0,0,0-2.476-.628h0a7.189,7.189,0,0,0-2.058.349h0a16.036,16.036,0,0,0-2.511,1.081h0q-1.36.732-2.337,1.256h0q-.976.523-2.3,1.36h0q-1.29.8-1.535.942h0L622.937,68.3h0q3.278-2.616,5.789-4.464h0q2.511-1.814,5.929-3.941h0a29.875,29.875,0,0,1,6.766-3.243h0a20.35,20.35,0,0,1,6.313-1.081h0q5.406,0,7.6,2.895h0a13.832,13.832,0,0,1,2.581,7.673h0l1.814.663h0Q677.1,56.025,690.283,56.025h0a16.582,16.582,0,0,1,7.673,1.6h0a15.33,15.33,0,0,1,4.639,3.453h0q1.569,1.848,2.3,6.661h0a68.271,68.271,0,0,1,.872,7.638h0q.1,2.825.035,10.079h0v4.5h0q0,2.337-.244,7.847h0q-.279,5.51-.279,7.952h0a42.339,42.339,0,0,0,.384,6.487h0a11.568,11.568,0,0,0,.767,3.069h0a5.4,5.4,0,0,0,1.325,1.465h0a5.892,5.892,0,0,0,4.359,1.569h0q4.639,0,10.254-3.941h1.779l1.744,2.546h0a147.359,147.359,0,0,1-11.544,10.707h0q-7.254,5.685-12.869,5.685h0a11.7,11.7,0,0,1-8.266-3h0a9.069,9.069,0,0,1-1.639-2.023h0a9.766,9.766,0,0,1-1.046-3.034h0q-.384-1.918-.593-3.522h0a41.649,41.649,0,0,1-.314-4.918h0q-.07-3.278-.035-5.72h0q.035-2.441.07-7.463h0q.035-5.022.035-8.684h0q0-6.208-.14-10.149h0A54.578,54.578,0,0,0,688.4,75.94h0q-1.011-4.918-2.895-6.731h0Q682.959,66.8,676.96,66.8h0Q671.415,66.8,658.372,73.847Zm91.445-18.136h0V35.344h0q0-3.069-3.8-2.79h0l-30.865,1.5-1.36-1.325V23.8l1.186-1.186h0q5.545.14,20.716.732h0q15.171.593,23.506.593h0q6.871,0,14.334-.244h0q7.464-.279,17.3-.767h0q9.87-.488,14.369-.628h0l1.569,1.5v7.708l-1.709,1.36h0q-.453,0-6.452-.14h0q-6-.174-13.671-.314h0q-7.673-.139-12.242-.14h0a5.129,5.129,0,0,0-2.581.453h0a2.114,2.114,0,0,0-.663,1.848h0V55.711h0q0,29.994,2.616,71.566h0l-22.077,6.313-1.36-1.883h0Q749.817,91.146,749.817,55.711Zm121.509,6.313,9.207-5.859,2.162,1.43h0q-2.476,25.564-2.476,41.886h0q0,6.452.1,9.277h0a56.779,56.779,0,0,0,.523,6.208h0q.453,3.313,1.534,4.5h0a3.871,3.871,0,0,0,2.965,1.151h0q3.592,0,10.707-6.452h0l2.93,3.209h0q-2.72,3.244-5.2,5.755h0a65.164,65.164,0,0,1-5.755,5.127h0a27.02,27.02,0,0,1-7.01,4.046h0a20.366,20.366,0,0,1-7.394,1.43h0q-8.161,0-9.486-10.184h0l-1.953-.767h0q-15.066,11.4-28.564,11.4h0a17.573,17.573,0,0,1-10.323-3.069h0a20.459,20.459,0,0,1-6.836-8.022h0a44.577,44.577,0,0,1-3.523-10.149h0a49.7,49.7,0,0,1-1.116-10.393h0q0-23.3,9.417-35.225h0q9.382-11.893,27.657-11.893h0a42.5,42.5,0,0,1,22.425,6.592ZM864.42,81.031h0q0-19.775-14.09-19.775h0a18.074,18.074,0,0,0-7.708,1.6h0a15.382,15.382,0,0,0-5.65,4.464h0a32.409,32.409,0,0,0-3.836,6.313h0a33.877,33.877,0,0,0-2.441,7.6h0q-.8,4.15-1.186,7.812h0a72.607,72.607,0,0,0-.384,7.5h0a46.536,46.536,0,0,0,.767,8.545h0a38.072,38.072,0,0,0,2.441,8.161h0a14.878,14.878,0,0,0,5.022,6.487h0a12.92,12.92,0,0,0,7.882,2.441h0q9.068,0,18-8.335h0Q864.42,104.887,864.42,81.031Zm87.993-24.169h1.813l5.685,5.441v1.569h0Q944.112,73.115,928,90.867h0q3.139,6.138,5.231,9.835h0q2.127,3.732,5.406,8.893h0a38.923,38.923,0,0,0,6.208,7.777h0q2.93,2.651,5.406,2.651h0q4.952,0,11.091-6.173h1.5l1.709,2.2h0q-12.137,17.682-23.053,17.682h0a10.872,10.872,0,0,1-3.871-.7h0a12.585,12.585,0,0,1-3.069-1.535h0a14.206,14.206,0,0,1-2.685-2.581h0q-1.465-1.709-2.232-2.755h0q-.732-1.046-2.093-3.243h0L917.292,103.91h-1.569A118.733,118.733,0,0,0,897.8,132.439h0l-2.476.593L888,129.23v-1.046h0A229.111,229.111,0,0,1,913.63,97h0q-3.1-6.905-10.672-20.089h0q-1.5-2.546-2.685-4.255h0a14.775,14.775,0,0,0-3.278-3.348h0a6.932,6.932,0,0,0-4.15-1.6h0q-3.662,0-10.567,4.883h0l-2.755-3.7h0q3.139-2.755,5.162-4.36h0q2.023-1.6,5.162-3.8h0a26.653,26.653,0,0,1,6.173-3.209h0a17.825,17.825,0,0,1,5.894-1.046h0q5.475,0,8.2,2.3h0q5.964,5.476,13.846,23.681h0q.209.384.314.593h0q.07.244.209.593h0q.14.314.314.628h.872q15.45-17.682,26.75-27.413Z" transform="translate(-2.56 -22.3)" fill="#fff"/>
      </g>
    </g>
    <g id="SvgjsG1173" transform="translate(1136.203 589.639)">
      <g id="Group_41" data-name="Group 41" transform="translate(0 0)">
        <g id="Group_40" data-name="Group 40" transform="translate(0 0)">
          <path id="Path_3" data-name="Path 3" d="M10.323,123.985h0a28.512,28.512,0,0,1-4.29-.244h0a13.533,13.533,0,0,1-3.243-1.011h0A6.363,6.363,0,0,1,0,120.044H0Q0,118.2,1.709,118.2h0A12.423,12.423,0,0,1,6.1,119.277h0a9.908,9.908,0,0,0,4.22,1.256h0a8.966,8.966,0,0,0,6.382-2.825h0a18.558,18.558,0,0,0,4.464-7.359h0A48.837,48.837,0,0,0,24.309,94.48h0a57.366,57.366,0,0,0-2.2-15.52h0a76.157,76.157,0,0,0-5.824-14.787h0q-.767-1.709-2.651-5.162h0Q9.73,51.163,7.673,46.769h0a65.878,65.878,0,0,1-3.592-9.73h0a50.822,50.822,0,0,1-2.2-15.206h0a30.523,30.523,0,0,1,1.639-9.975h0A20.453,20.453,0,0,1,8.754,3.627h0A12.713,12.713,0,0,1,17.578,0h0a9.64,9.64,0,0,1,4.534,1.5h0Q24.762,3,24.762,4.394h0q0,1.256-.942,1.256h0a6.387,6.387,0,0,1-2.511-.767h0a5.341,5.341,0,0,0-2.651-.8h0a8.811,8.811,0,0,0-6.347,2.651h0A15.754,15.754,0,0,0,8.3,13.358h0a22.285,22.285,0,0,0-1.116,7.219h0A53.9,53.9,0,0,0,8.754,33.2h0a63.211,63.211,0,0,0,4.255,12.172h0l5.476,11.439,1.569,3.313h0q3.313,6.731,5.127,11.126h0a60.033,60.033,0,0,1,3.034,9.9h0a61.106,61.106,0,0,1,1.744,14.09h0A41.266,41.266,0,0,1,25.25,113.8h0a20.368,20.368,0,0,1-6.278,7.359h0a14.524,14.524,0,0,1-8.649,2.825Z" transform="translate(0 11.027) rotate(-5.926)" fill="#fff"/>
          <path id="Path_4" data-name="Path 4" d="M3.592,105.431h0q-2.825,0-3.139-3.278h0v-2.023h0a8.954,8.954,0,0,0,.174-1.883h0L0,97.584H0a17.872,17.872,0,0,0,1.256-6.417h0q0-3.592-.488-10.358h0L.453,70.45h0q0-7.847.488-23.541h0q.628-13.95.628-23.681h0l-.314-9.451h0Q.942,9.556.942,4.394h0A4.387,4.387,0,0,1,2.058,1.011h0A4.882,4.882,0,0,1,5.476,0h0A3.394,3.394,0,0,1,7.987.942h0a45.5,45.5,0,0,0,4.569.628h0a33.1,33.1,0,0,1,6.731,1.4h0q3,.942,3,2.337h0q0,1.569-3,3.174h0q-8.928-3-12.695-3h0l-.8.942h0q.174,1.43.174,6.731h0q0,6.766-.314,12.1h0q-.174,5.476-.174,12.242h0q0,4.394,2.2,4.394h0l2.511-.14h0a19.546,19.546,0,0,1,2.685-.174h0q6.1,0,6.1,2.825h0a5.217,5.217,0,0,1-.767,2.895h0a2.678,2.678,0,0,1-2.372,1.186h0a4.861,4.861,0,0,1-3.592-1.256h0l-5.022-.8H6.452l-.8.8v.488h0q.314,2.651.314,12.381h0q0,6.138-.174,11.16h0L5.65,82.378h0q0,6.138.453,12.555h0q.174,3.592,1.569,4.778h0q1.43,1.186,5.2,1.186h0l2.825-.174h0q1.4-.14,3.139-.14h0q4.534,0,4.534,2.058h0q0,2.79-6.871,2.79H3.592Z" transform="translate(60.345 22.6) rotate(-4.861)" fill="#fff"/>
          <path id="Path_5" data-name="Path 5" d="M26.052,107.384l-2.162-.8h0q-1.918-2.023-4.081-10.812h0Q17.578,86.981,15.729,76h0A154.983,154.983,0,0,0,12.1,58.243h0Q10.219,50.4,8.475,50.4H8.022q-3.453,0-3.453,2.2h0q0,11.3,1.256,34.388h0q.628,14.125,1.4,16.462h0L6,106.093H3.8l-1.29-1.256h0Q0,32.33,0,6H0A13.256,13.256,0,0,1,.244,3.174h0A4.692,4.692,0,0,1,1.29,1.116h0A2.227,2.227,0,0,1,3.453,0h0q8.022,0,12.869,3.941h0Q21.2,7.847,21.2,15.241h0V26.715h0A23.645,23.645,0,0,1,19.252,34.7h0a81.834,81.834,0,0,1-4.325,9.277h0l-2.058,3.906h0q1.744,8.022,6.836,28.808h0q5.092,20.786,5.58,22.042h0a2.775,2.775,0,0,1,.384.8h0a13.476,13.476,0,0,0,1.011,1.883h0a8.483,8.483,0,0,1,1.116,3.767h0q0,2.2-1.744,2.2ZM5.336,46.455h0a6.731,6.731,0,0,0,5.336-2.964h0a22.315,22.315,0,0,0,3.767-7.673h0q2.511-9.591,2.511-15.241h0a38.391,38.391,0,0,0-.384-5.964h0a29.931,29.931,0,0,0-1.325-5.022h0Q13.358,4.115,6.278,4.115h0q-.767,0-1.256,1.325h0a8.348,8.348,0,0,0-.453,2.72h0q0,10.533.314,19.008h0q.14,8.475.14,18.973h0Z" transform="matrix(0.998, -0.067, 0.067, 0.998, 109.269, 17.384)" fill="#fff"/>
          <path id="Path_6" data-name="Path 6" d="M19.949,108.744l-1.744-1.4h0q0-12.1-3.836-35.643h0Q10.5,48.164,4.255,20.228h0L2.964,15.38.942,8.161h0A22.839,22.839,0,0,1,0,4.081H0A1.906,1.906,0,0,1,.7,2.895h0a1.931,1.931,0,0,1,1.325-.732h0q2.232,0,3.453,4.883h0Q6.1,9.068,6.661,11.684h0q.558,2.581.872,3.7h0a27.338,27.338,0,0,0,.453,2.79h0q3,12.1,3.627,15.38h0l1.569,8.022,1.4,7.533,1.43,8.022h0a52.838,52.838,0,0,0,1.256,7.359h0L19.6,79.866h0q0,.628,1.116,8.022h0l1.116,7.673h0q3.139-10.219,5.3-31.075h0q2.232-19.461,6.313-39.1h0Q36.9,8.475,38.294.767h0L40.317,0h0A2.456,2.456,0,0,1,41.5.628h0a1.232,1.232,0,0,1,.558.907h0a43.072,43.072,0,0,1-1.43,9.451h0l-.942,4.081L37.038,27.448h0Q34.667,37.666,33.83,43.142h0q-.872,5.476-1.988,15.869h0L31.528,62.6h0q-.767,8.475-1.151,11.474h0a49.683,49.683,0,0,1-1.814,7.673h0q-1.256,4.708-2.058,8.335h0l-.314,3.592h0a59.311,59.311,0,0,1-1.221,9.73h0q-1.29,5.336-5.022,5.336Zm1.709-12.067v-.628l-.174.314Z" transform="translate(157.531 11.907) rotate(-2.599)" fill="#fff"/>
          <path id="Path_7" data-name="Path 7" d="M16.008,103.408h0q-3.627,0-4.22-1.569h0a3.925,3.925,0,0,0-1.29.174H9.242q-3.418,0-4.36-1.569h0A2.293,2.293,0,0,1,6.1,98.525h0l.8-.767h4.569l.593-.628.314-1.43.174-1.883h0q0-9.556-.488-17.089h0l-.279-5.789-.314-11.474h0q0-6.1.453-18.345h0l.314-18.24h0a161.059,161.059,0,0,0-.767-18.17h0A16.232,16.232,0,0,0,6.731,4.22h0l-1.709.174h0a14.083,14.083,0,0,1-2.058.14h0Q0,4.534,0,1.883H0Q0,1.256,1.4.628h0A6.2,6.2,0,0,1,3.767,0h0A113.861,113.861,0,0,1,15.694.628h0a24.949,24.949,0,0,1,7.219,1.4h0q2.825.942,2.825,2.685h0a3.454,3.454,0,0,1-.488,1.221h0l-3.592.314h0Q20.542,5.3,17.089,5.3h0l-.767.488h0q.453,1.43.453,8.3h0q0,10.393-.14,18.694h0l-.314,18.694h0q0,7.045.628,17.089h0q.488,11.439.488,17.264h0v2.023h0a18.848,18.848,0,0,0-.174,2.825h0q0,3.627.488,4.429h0l-.174.314h0q0,1.569,3.453,1.569h0a13.745,13.745,0,0,0,2.372-.174h2.337q4.534,0,4.534,2.2h0a2.88,2.88,0,0,1-.942,2.267h0a3.5,3.5,0,0,1-2.476.872h0a9.419,9.419,0,0,1-2.546-.314h0a24.025,24.025,0,0,0-2.651-.14h0a8.434,8.434,0,0,0-2.825.767h0a7.227,7.227,0,0,1-2.825.942Z" transform="translate(220.539 12.833) rotate(-1.474)" fill="#fff"/>
          <path id="Path_8" data-name="Path 8" d="M17.089,107.035l-3.767-1.4h0a15.583,15.583,0,0,1-5.092-2.685h0A16.931,16.931,0,0,1,4.22,97.793h0Q.907,91.515.279,79.727h0Q0,74.391,0,70.31H0V52.419H0Q0,42.235.593,32.644h0a101.3,101.3,0,0,1,1.43-11.928h0a49.657,49.657,0,0,1,2.964-9.73h0q2.2-5.022,4.883-7.045h0a16.215,16.215,0,0,1,4.22-2.2h0Q16.148.942,18.031,0H24.8a.547.547,0,0,0,.453.174h0l.767.14L26.645.8h0q.488.453.488.628h0a2.429,2.429,0,0,1,.14.942h0L25.25,4.708H18.659A7.034,7.034,0,0,0,13.253,7.6h0a19.77,19.77,0,0,0-3.7,7.289h0a58.063,58.063,0,0,0-2.023,9.277h0a90.478,90.478,0,0,0-.977,9.277h0q-.314,4.987-.314,6.905h0l-.279.767h0q0,8.789-.314,15.869h0L5.3,72.821h0a79.963,79.963,0,0,0,.942,12.73h0a23.448,23.448,0,0,0,4.569,11.265h0q3.592,5.022,11.125,5.022h0a5.713,5.713,0,0,0,3.941-1.4h0q2.337,0,2.337,1.744h0q0,1.081-1.953,2.581h0a16.956,16.956,0,0,1-4.011,2.267H17.089Z" transform="translate(271.57 10.612) rotate(-0.473)" fill="#fff"/>
          <path id="Path_9" data-name="Path 9" d="M3.592,105.431h0q-2.825,0-3.139-3.278h0v-2.023h0a8.954,8.954,0,0,0,.174-1.883h0L0,97.584H0a17.872,17.872,0,0,0,1.256-6.417h0q0-3.592-.488-10.358h0L.453,70.45h0q0-7.847.488-23.541h0q.628-13.95.628-23.681h0l-.314-9.451h0Q.942,9.556.942,4.394h0A4.387,4.387,0,0,1,2.058,1.011h0A4.882,4.882,0,0,1,5.476,0h0A3.394,3.394,0,0,1,7.987.942h0a45.5,45.5,0,0,0,4.569.628h0a33.1,33.1,0,0,1,6.731,1.4h0q3,.942,3,2.337h0q0,1.569-3,3.174h0q-8.928-3-12.695-3h0l-.8.942h0q.174,1.43.174,6.731h0q0,6.766-.314,12.1h0q-.174,5.476-.174,12.242h0q0,4.394,2.2,4.394h0l2.511-.14h0a19.546,19.546,0,0,1,2.685-.174h0q6.1,0,6.1,2.825h0a5.217,5.217,0,0,1-.767,2.895h0a2.678,2.678,0,0,1-2.372,1.186h0a4.861,4.861,0,0,1-3.592-1.256h0l-5.022-.8H6.452l-.8.8v.488h0q.314,2.651.314,12.381h0q0,6.138-.174,11.16h0L5.65,82.378h0q0,6.138.453,12.555h0q.174,3.592,1.569,4.778h0q1.43,1.186,5.2,1.186h0l2.825-.174h0q1.4-.14,3.139-.14h0q4.534,0,4.534,2.058h0q0,2.79-6.871,2.79H3.592Z" transform="translate(325.572 11.535) rotate(0.56)" fill="#fff"/>
          <path id="Path_10" data-name="Path 10" d="M5.022,107.523h0A9.029,9.029,0,0,1,1.744,106.2h0A3.508,3.508,0,0,1,0,103.757H0L.8,102.5h0a18.949,18.949,0,0,1,2.825.453h0a8.194,8.194,0,0,0,2.825.663h0a8.24,8.24,0,0,0,6.1-2.755h0a17.73,17.73,0,0,0,4.081-7.15h0a59.268,59.268,0,0,0,2.2-15.38h0q0-10.812-6.592-23.228h0Q8.161,47.885,5.964,43.665h0a65.162,65.162,0,0,1-3.906-9.73h0A40.81,40.81,0,0,1,0,21.519H0A39.8,39.8,0,0,1,2.825,8.161h0A15.041,15.041,0,0,1,6.836,2.3h0A8.325,8.325,0,0,1,12.416,0h0a6.825,6.825,0,0,1,4.011,1.43h0a3.9,3.9,0,0,1,1.953,3h0q0,1.256-2.058,1.256h0A3.6,3.6,0,0,1,14.753,5.2h0a4,4,0,0,0-1.709-.453h0A5.873,5.873,0,0,0,8.789,6.626h0a11.45,11.45,0,0,0-2.825,4.848h0A34.939,34.939,0,0,0,4.081,22.146h0a25.02,25.02,0,0,0,.8,6.138h0A13.27,13.27,0,0,0,5.2,29.854h0a4.788,4.788,0,0,1,.14.942h0l.942,3.139.8,2.825,1.256,2.79h0a12.2,12.2,0,0,0,1.011,1.988h0q.558.872,1.011,1.639h0l1.883,3.313h0q.628.907,2.685,4.464h0a79.887,79.887,0,0,1,3.767,7.463h0a35.449,35.449,0,0,1,2.337,6.173h0a63.519,63.519,0,0,1,1.43,7.01h0a69.78,69.78,0,0,1,.488,8.614h0A47.152,47.152,0,0,1,20.891,94.34h0q-2.825,7.847-8.161,10.986h0a12.711,12.711,0,0,1-6.905,1.883h0ZM17.438,5.2h.14a.123.123,0,0,0-.14-.14h0Z" transform="translate(370.99 9.972) rotate(1.525)" fill="#fff"/>
          <path id="Path_11" data-name="Path 11" transform="translate(404.494 117.177) rotate(2.339)" fill="#fff"/>
          <path id="Path_12" data-name="Path 12" d="M13.183,118.021h0q-3.767-.14-9.556-.14h0a2.814,2.814,0,0,1-1.953-.8h0A2.249,2.249,0,0,1,.8,115.37h0q0-2.058,2.685-2.058h6.1q0-18.066-1.116-45.513h0Q7.882,45.827,7.219,33.272h0l.174-7.987V14.927h0A96.12,96.12,0,0,0,7.08,4.848H1.569Q0,4.848,0,2.685H0A2.434,2.434,0,0,1,1.256.488h0Q2.372,0,7.08,0h4.394q2.337.14,5.964.14h0A3.362,3.362,0,0,1,19.461.7h0a1.9,1.9,0,0,1,.8,1.674h0a3.117,3.117,0,0,1-.488,1.709h0a1.51,1.51,0,0,1-1.4.767h0A10.75,10.75,0,0,1,16.5,4.708H13.044a3.269,3.269,0,0,0-1.883.314h0l-.314.628h0q0,12.242,2.023,49.454h0q1.883,34.353,1.883,49.42h0v4.394h0q-.14,2.023-.14,4.255h5.65q3.592,0,3.592,2.2h0a2.736,2.736,0,0,1-.7,1.779h0a1.928,1.928,0,0,1-1.465.872h-8.51Z" transform="translate(452.995 0) rotate(3.196)" fill="#fff"/>
          <path id="Path_13" data-name="Path 13" d="M39.375,104.036h0a1.867,1.867,0,0,1-1.779-.942h0a11.378,11.378,0,0,1-1.046-2.825h0a6.233,6.233,0,0,0-.628-2.2h0l.174-.488h0a99.069,99.069,0,0,0-5.336-18.031h0l-2.825-8.161h0a78.915,78.915,0,0,1-3-7.987h0l-1.256-3.767h0Q9.591,16.008,5.964,12.381h0A39.75,39.75,0,0,0,4.708,23.367h0q0,3.627.14,6.278h0l.174,6.138L4.848,39.55h0q-.14,1.709-.14,3.767h0a49.427,49.427,0,0,0,.314,5.964h0L5.336,54.3H4.848q0,26.192,1.116,28.877h0V97.3h0a7.216,7.216,0,0,1,.628,3.278h0a3.132,3.132,0,0,1-.872,2.2h0a2.753,2.753,0,0,1-2.093.942h0q-3.313,0-3.313-8.475h0l.314-5.022h0a39.459,39.459,0,0,0,.314-5.162h0q0-7.533-.488-22.6h0Q0,47.4,0,39.863H0q0-4.569.453-13.985h0q.488-9.242.488-13.811h0V10.044h0Q.942,2.337,3.767,0h0L4.22.453,5.789.14h0a3.653,3.653,0,0,1,1.43.942h0a1.97,1.97,0,0,1,.628,1.43h0l.314.942h0a1.676,1.676,0,0,0,.07.523h0l.07.244h0q2.511,11.16,11.3,31.249h0q8.963,21.17,11.16,28.075h0q1.569,5.476,2.511,9.73h0q2.964,13.358,7.045,20.542h0l.314-.453h0q3.627-34.841,3.627-85.516h0l-.174-1.918h0a11.755,11.755,0,0,1-.14-2.023h0q0-3.278,2.2-3.278h0a3.017,3.017,0,0,1,2.441,1.4h0a5.318,5.318,0,0,1,1.011,3.139h0V15.694l-.8,1.256h0q0,14.892-1.709,48.966h0q-1.709,34.039-3.313,37h0l-2.651.628v.174l-.174-.174Z" transform="translate(506.811 18.442) rotate(4.564)" fill="#fff"/>
          <path id="Path_14" data-name="Path 14" d="M17.089,107.035l-3.767-1.4h0a15.583,15.583,0,0,1-5.092-2.685h0A16.931,16.931,0,0,1,4.22,97.793h0Q.907,91.515.279,79.727h0Q0,74.391,0,70.31H0V52.419H0Q0,42.235.593,32.644h0a101.3,101.3,0,0,1,1.43-11.928h0a49.657,49.657,0,0,1,2.964-9.73h0q2.2-5.022,4.883-7.045h0a16.215,16.215,0,0,1,4.22-2.2h0Q16.148.942,18.031,0H24.8a.547.547,0,0,0,.453.174h0l.767.14L26.645.8h0q.488.453.488.628h0a2.429,2.429,0,0,1,.14.942h0L25.25,4.708H18.659A7.034,7.034,0,0,0,13.253,7.6h0a19.77,19.77,0,0,0-3.7,7.289h0a58.063,58.063,0,0,0-2.023,9.277h0a90.478,90.478,0,0,0-.977,9.277h0q-.314,4.987-.314,6.905h0l-.279.767h0q0,8.789-.314,15.869h0L5.3,72.821h0a79.963,79.963,0,0,0,.942,12.73h0a23.448,23.448,0,0,0,4.569,11.265h0q3.592,5.022,11.125,5.022h0a5.713,5.713,0,0,0,3.941-1.4h0q2.337,0,2.337,1.744h0q0,1.081-1.953,2.581h0a16.956,16.956,0,0,1-4.011,2.267H17.089Z" transform="translate(586.313 24.102) rotate(5.957)" fill="#fff"/>
        </g>
      </g>
    </g>
  </g>
</svg>
