<?xml version="1.0" ?><svg id="Layer_1_1_" style="enable-background:new 0 0 64 64;" version="1.1" viewBox="0 0 64 64" xml:space="preserve" xmlns="http://www.w3.org/2000/svg" xmlns:xlink="http://www.w3.org/1999/xlink"><g><path d="M55,26.991V1H1v43h6v13c0,3.309,2.691,6,6,6s6-2.691,6-6v-3v-2v-8h19.782L20.665,63H63V18.602   L55,26.991z M9.804,22L13,16.887L16.196,22H9.804z M13,61c-1.858,0-3.411-1.279-3.858-3h7.716C16.411,59.721,14.858,61,13,61z    M17,56H9v-2h8V56z M14,52v-2h-2v2H9V24h3v24h2V24h3v28H14z M19,42V22.713l-6-9.6l-6,9.6V42H3V11h46V9H3V3h50v6h-2v2h2v18h0.085   L40.689,42H19z M61,61H25.335L61,23.598V61z" style="fill:#3F3A34;"/><path d="M57,57V34.49L35.675,57H57z M55,55H40.325L55,39.51V55z" style="fill:#3F3A34;"/><rect height="2" style="fill:#3F3A34;" width="2" x="5" y="5"/><rect height="2" style="fill:#3F3A34;" width="2" x="9" y="5"/><rect height="2" style="fill:#3F3A34;" width="2" x="13" y="5"/><path d="M34,13c-7.168,0-13,5.832-13,13s5.832,13,13,13s13-5.832,13-13S41.168,13,34,13z M23,26   c0-5.728,4.402-10.442,10-10.949v12.403l8.014,7.012C39.108,36.047,36.664,37,34,37C27.935,37,23,32.065,23,26z M42.433,33.05   L35,26.546V15.051C40.598,15.558,45,20.272,45,26C45,28.681,44.033,31.139,42.433,33.05z" style="fill:#3F3A34;"/></g></svg>