<?xml version="1.0" ?><svg id="Layer_1_1_" style="enable-background:new 0 0 64 64;" version="1.1" viewBox="0 0 64 64" xml:space="preserve" xmlns="http://www.w3.org/2000/svg" xmlns:xlink="http://www.w3.org/1999/xlink"><g><path d="M39,5H5v12h31h3V5z M37,15H7V7h30V15z" style="fill:#3F3A34;"/><polygon points="11,29 13,29 13,27 15,27 15,25 13,25 13,23 11,23 11,25 9,25 9,27 11,27  " style="fill:#3F3A34;"/><polygon points="10.586,44.828 12,43.414 13.414,44.828 14.828,43.414 13.414,42 14.828,40.586    13.414,39.172 12,40.586 10.586,39.172 9.172,40.586 10.586,42 9.172,43.414  " style="fill:#3F3A34;"/><path d="M36,21c-7.72,0-14,6.28-14,14s6.28,14,14,14s14-6.28,14-14S43.72,21,36,21z M36,47   c-6.617,0-12-5.383-12-12s5.383-12,12-12s12,5.383,12,12S42.617,47,36,47z" style="fill:#3F3A34;"/><path d="M26,35c0,3.344,1.661,6.453,4.443,8.316l1.113-1.662C29.329,40.163,28,37.676,28,35   c0-4.411,3.589-8,8-8v-2C30.486,25,26,29.486,26,35z" style="fill:#3F3A34;"/><path d="M32.662,44.429C33.732,44.808,34.855,45,36,45v-2c-0.916,0-1.814-0.153-2.67-0.457L32.662,44.429z" style="fill:#3F3A34;"/><path d="M61.854,56.663l-7.801-7.302l1.654-1.654l-1.414-1.414l-1.7,1.7l-2.275-2.129   C52.618,42.84,54,39.083,54,35c0-7.444-4.542-13.847-11-16.583V1H1v52h35c3.059,0,5.94-0.772,8.466-2.124l2.655,2.589l-1.828,1.828   l1.414,1.414l1.845-1.845l7.669,7.481c0.775,0.775,1.796,1.216,2.874,1.24c0.031,0.001,0.062,0.001,0.094,0.001   c1.06,0,2.046-0.404,2.785-1.144c0.762-0.762,1.168-1.784,1.144-2.879C63.094,58.482,62.653,57.461,61.854,56.663z M3,51V3h38   v14.721C39.41,17.26,37.736,17,36,17c-2.958,0-5.744,0.73-8.208,2H21v6h0.044c-0.853,1.272-1.534,2.665-2.044,4.137V19H5v14h13.118   C18.045,33.658,18,34.323,18,35H5v14h14v-8.137c1.523,4.401,4.699,8.028,8.792,10.137H3z M24.711,21   c-0.606,0.49-1.174,1.021-1.711,1.584V21H24.711z M17,21v10H7V21H17z M17,37v10H7V37H17z M20,35c0-8.822,7.178-16,16-16   s16,7.178,16,16s-7.178,16-16,16S20,43.822,20,35z M46.224,49.797c1.016-0.704,1.949-1.513,2.799-2.406l2.155,2.017l-2.643,2.643   L46.224,49.797z M60.561,61.025c-0.372,0.373-0.904,0.568-1.42,0.558c-0.561-0.013-1.096-0.245-1.514-0.664l-7.66-7.472   l2.672-2.672l7.825,7.324c0.41,0.41,0.643,0.944,0.654,1.505C61.131,60.149,60.933,60.653,60.561,61.025z" style="fill:#3F3A34;"/></g></svg>