<?xml version="1.0" ?><svg id="Layer_1_1_" style="enable-background:new 0 0 64 64;" version="1.1" viewBox="0 0 64 64" xml:space="preserve" xmlns="http://www.w3.org/2000/svg" xmlns:xlink="http://www.w3.org/1999/xlink"><g><path d="M8,44h6V30H8V44z M10,32h2v10h-2V32z" style="fill:#3F3A34;"/><path d="M16,44h6V25h-6V44z M18,27h2v15h-2V27z" style="fill:#3F3A34;"/><path d="M24,44h6V21h-6V44z M26,23h2v19h-2V23z" style="fill:#3F3A34;"/><path d="M58,26h-0.54c0.954-1.063,1.54-2.462,1.54-4c0-3.309-2.691-6-6-6c-1.093,0-2.116,0.299-3,0.812V13   h-5v-2h5.915L39,1.733L27.085,11H33v2H1v6h3v27H1v6h46v11h12V43.829C59.313,43.939,59.649,44,60,44c1.654,0,3-1.346,3-3V31   C63,28.243,60.757,26,58,26z M53,18c2.206,0,4,1.794,4,4s-1.794,4-4,4s-4-1.794-4-4S50.794,18,53,18z M45,19h2.812   C47.299,19.884,47,20.907,47,22c0,1.538,0.586,2.937,1.54,4H45V19z M48,15v2h-3v-2H48z M32.915,9L39,4.267L45.085,9H43v17h-7   c-0.352,0-0.686,0.072-1,0.184V19v-2v-2v-2V9H32.915z M35,31.816C35.314,31.928,35.648,32,36,32h7v10h-8V31.816z M3,15h30v2H3V15z    M3,50v-2h40v-2H6V19h27v25h12V32h2v14h-2v2h2v2H3z M54,61V44h-2v17h-3V41h8v20H54z M61,41c0,0.552-0.449,1-1,1s-1-0.448-1-1v-9h-2   v7h-8v-9H36c-0.551,0-1-0.449-1-1s0.449-1,1-1h22c1.654,0,3,1.346,3,3V41z" style="fill:#3F3A34;"/><rect height="2" style="fill:#3F3A34;" width="2" x="38" y="22"/><rect height="11" style="fill:#3F3A34;" width="2" x="38" y="9"/></g></svg>