<svg id="SvgjsSvg1190" width="5000" height="3099" xmlns="http://www.w3.org/2000/svg" version="1.1" xmlns:xlink="http://www.w3.org/1999/xlink" xmlns:svgjs="http://svgjs.com/svgjs" viewBox="0 0 319.421875 198"><defs id="SvgjsDefs1191"></defs><g id="SvgjsG1193" transform="rotate(0 41.5 97.5)"><svg height="195" viewBox="0 0 40.49401092529297 95.70899200439453" xmlns="http://www.w3.org/2000/svg" version="1.1" xmlns:xlink="http://www.w3.org/1999/xlink" xmlns:svgjs="http://svgjs.com/svgjs" preserveAspectRatio="none" width="83" x="0" y="0"><g><svg data-color="1" xmlns="http://www.w3.org/2000/svg" xmlns:xlink="http://www.w3.org/1999/xlink" version="1.1" x="0px" y="0px" viewBox="29.649999618530273 1.6540000438690186 40.49401092529297 95.70899200439453" enable-background="new 0 0 100 100" xml:space="preserve" width="40.49401092529297" height="95.70899200439453" fill="rgb(200, 200, 200)"><path d="M56.529,66.159l-4.721-2.188c-2.648-1.151-6.218-3.166-6.621-6.448c-0.288-2.303,1.439-4.145,3.397-4.606v6.966l3.339,1.439  v-8.406c0.691-0.115,3.915,0.403,3.915,1.554c0,0.806-1.669,1.785-1.669,4.318s2.188,4.433,4.721,4.433  c2.821,0,5.239-1.612,5.239-4.663c0-6.276-7.254-8.809-12.206-8.982v-1.632c0.05-0.61,0.113-1.207,0.186-1.781  c0.25-1.944,0.954-3.977,1.86-5.857c1.056-2.181,1.992-3.376,4.456-5.186c2.479-1.824,6.757-2.313,6.757-2.313  s-4.14,1.715-6.836,4.31c-1.896,1.825-2.777,3.477-3.662,6.124c1.805,0.108,5.931-0.39,9.128-2.8c5.202-3.917,6.332-9.26,6.332-9.26  s-8.834-4.501-14.355,1.243c-1.306,1.359-2.075,2.938-2.765,4.401c-0.694,1.463-1.971,5.602-1.971,5.602  c0.422-7.113,2.565-10.22,3.42-13.283c1.342-4.418,1.921-9.227-1.735-14.892C44.837,1.994,29.65,1.654,29.65,1.654  s0.48,17.587,6.85,25.747c2.859,3.665,6.353,5.685,9.314,6.79c0.734-4.975,1.042-7.035,0.246-11.336  c-1.245-6.714-7.172-12.382-7.172-12.382s5.192,3.004,7.86,7.968c1.73,3.219,2.225,6.547,2.265,9.605  c0.038,2.923-0.736,10.492-0.405,17.444h-0.024v4.203c-6.448,0.864-11.803,6.161-11.918,13.242  c-0.115,6.448,3.685,10.133,11.918,13.99c6.966,2.936,8.693,4.606,8.693,7.312c0,2.994-2.879,5.124-5.354,5.067v-8.406l-3.339-1.267  v9.672c-0.922,0.403-5.643-0.921-5.643-2.015c0-0.633,3.052-1.209,3.052-4.606c0-2.821-2.13-5.182-5.009-5.182  c-3.166,0-5.47,2.361-5.47,5.527c0,6.506,7.888,9.5,13.07,9.615v4.721h3.339v-4.721c7.427-0.403,13.875-5.412,13.875-13.53  C65.799,72.262,62.46,68.865,56.529,66.159z"></path></svg></g><defs id="SvgjsDefs1192"></defs></svg></g><g id="SvgjsG1195" transform="rotate(0 181.5078125 91)"><svg xmlns="http://www.w3.org/2000/svg" xmlns:xlink="http://www.w3.org/1999/xlink" width="275.828125" viewBox="2.559999942779541 22.299999237060547 275.83001708984375 32.08000183105469" overflow="visible" style="overflow: visible;" transform="" version="1.1" xmlns:svgjs="http://svgjs.com/svgjs" preserveAspectRatio="none" height="32" x="43.59375" y="75" fill="#000000" stroke="none"><path stroke="none" fill="rgb(35, 35, 35)" d="M16.11 42.00L16.11 40.37L31.07 39.81L31.07 39.81Q30.85 42.67 30.85 44.99L30.85 44.99L30.85 44.99Q30.85 47.95 31.15 52.12L31.15 52.12L31.15 52.12Q27.05 53.20 23.96 53.76L23.96 53.76L23.96 53.76Q20.86 54.33 17.81 54.33L17.81 54.33L17.81 54.33Q10.96 54.33 7.05 50.72L7.05 50.72L7.05 50.72Q2.56 46.66 2.56 39.02L2.56 39.02L2.56 39.02Q2.56 35.45 3.75 32.28L3.75 32.28L3.75 32.28Q4.94 29.11 7.48 26.79L7.48 26.79L7.48 26.79Q9.90 24.60 13.28 23.56L13.28 23.56L13.28 23.56Q16.65 22.52 20.41 22.52L20.41 22.52L20.41 22.52Q29.11 22.52 31.99 27.97L31.99 27.97L27.71 31.93L26.92 31.58L26.92 31.58Q26.47 30.16 25.83 29.00L25.83 29.00L25.83 29.00Q25.20 27.84 24.28 26.81L24.28 26.81L24.28 26.81Q23.35 25.78 22.01 25.20L22.01 25.20L22.01 25.20Q20.67 24.62 19.06 24.62L19.06 24.62L19.06 24.62Q16.82 24.62 15.04 25.48L15.04 25.48L15.04 25.48Q13.26 26.34 12.15 27.70L12.15 27.70L12.15 27.70Q11.04 29.07 10.30 30.89L10.30 30.89L10.30 30.89Q9.56 32.72 9.27 34.51L9.27 34.51L9.27 34.51Q8.98 36.31 8.98 38.18L8.98 38.18L8.98 38.18Q8.98 40.24 9.37 42.14L9.37 42.14L9.37 42.14Q9.75 44.04 10.67 45.86L10.67 45.86L10.67 45.86Q11.58 47.67 12.94 49.02L12.94 49.02L12.94 49.02Q14.31 50.36 16.42 51.18L16.42 51.18L16.42 51.18Q18.54 51.99 21.16 51.99L21.16 51.99L21.16 51.99Q23.22 51.99 24.23 51.86L24.23 51.86L24.23 51.86Q24.66 51.82 24.92 51.57L24.92 51.57L24.92 51.57Q25.18 51.33 25.27 50.79L25.27 50.79L25.27 50.79Q25.35 50.25 25.36 49.84L25.36 49.84L25.36 49.84Q25.37 49.44 25.34 48.57L25.34 48.57L25.34 48.57Q25.31 47.70 25.31 47.29L25.31 47.29L25.31 43.98L25.31 43.98Q25.27 43.63 25.17 43.40L25.17 43.40L25.17 43.40Q25.07 43.16 24.86 42.99L24.86 42.99L24.86 42.99Q24.64 42.82 24.41 42.70L24.41 42.70L24.41 42.70Q24.17 42.58 23.72 42.50L23.72 42.50L23.72 42.50Q23.27 42.41 22.83 42.38L22.83 42.38L22.83 42.38Q22.39 42.35 21.62 42.30L21.62 42.30L21.62 42.30Q20.86 42.26 20.14 42.23L20.14 42.23L20.14 42.23Q19.42 42.20 18.29 42.13L18.29 42.13L18.29 42.13Q17.17 42.07 16.11 42.00L16.11 42.00ZM42.59 31.88L42.59 31.88L42.59 26.04L42.59 26.04Q42.59 25.16 41.50 25.24L41.50 25.24L32.64 25.67L32.26 25.29L32.26 22.73L32.60 22.39L32.60 22.39Q34.19 22.43 38.54 22.60L38.54 22.60L38.54 22.60Q42.89 22.77 45.28 22.77L45.28 22.77L45.28 22.77Q47.25 22.77 49.39 22.70L49.39 22.70L49.39 22.70Q51.53 22.62 54.35 22.48L54.35 22.48L54.35 22.48Q57.18 22.34 58.47 22.30L58.47 22.30L58.92 22.73L58.92 24.94L58.43 25.33L58.43 25.33Q58.30 25.33 56.58 25.29L56.58 25.29L56.58 25.29Q54.86 25.24 52.66 25.20L52.66 25.20L52.66 25.20Q50.46 25.16 49.14 25.16L49.14 25.16L49.14 25.16Q48.61 25.16 48.41 25.29L48.41 25.29L48.41 25.29Q48.22 25.42 48.22 25.82L48.22 25.82L48.22 31.88L48.22 31.88Q48.22 40.48 48.97 52.40L48.97 52.40L42.63 54.21L42.25 53.67L42.25 53.67Q42.59 42.04 42.59 31.88ZM66.37 53.28L66.37 53.28L60.83 53.75L60.74 53.32L60.74 53.32Q70.18 39.25 77.03 26.08L77.03 26.08L77.03 26.08Q77.07 26.04 77.07 25.87L77.07 25.87L77.07 25.87Q77.07 25.67 76.94 25.67L76.94 25.67L72.80 25.16L72.80 23.48L82.66 23.48L87.54 39.90L87.54 39.90Q87.94 41.25 88.23 42.18L88.23 42.18L88.23 42.18Q88.52 43.12 89.04 44.58L89.04 44.58L89.04 44.58Q89.55 46.04 90.05 47.03L90.05 47.03L90.05 47.03Q90.54 48.02 91.16 49.00L91.16 49.00L91.16 49.00Q91.77 49.97 92.47 50.48L92.47 50.48L92.47 50.48Q93.16 50.98 93.87 50.98L93.87 50.98L93.87 50.98Q94.75 50.98 96.43 50.64L96.43 50.64L96.75 51.86L96.75 51.86Q94.84 52.72 93.99 53.08L93.99 53.08L93.99 53.08Q93.14 53.43 91.55 53.88L91.55 53.88L91.55 53.88Q89.96 54.33 88.78 54.33L88.78 54.33L88.78 54.33Q87.84 54.33 87.09 53.95L87.09 53.95L87.09 53.95Q86.35 53.56 85.86 52.86L85.86 52.86L85.86 52.86Q85.37 52.16 85.06 51.49L85.06 51.49L85.06 51.49Q84.76 50.81 84.51 49.93L84.51 49.93L82.27 41.92L71.23 41.92L71.23 41.92Q69.77 44.64 66.37 53.28ZM73.38 39.64L80.90 39.64L80.90 39.64Q81.00 39.64 81.15 39.56L81.15 39.56L81.15 39.56Q81.30 39.49 81.30 39.40L81.30 39.40L81.30 39.40Q81.30 38.93 81.26 38.84L81.26 38.84L78.40 29.82L78.40 29.82Q78.30 29.48 78.00 29.48L78.00 29.48L78.00 29.48Q77.82 29.48 77.61 29.82L77.61 29.82L72.99 38.97L72.99 38.97Q72.90 39.10 72.90 39.36L72.90 39.36L72.90 39.36Q72.90 39.45 73.08 39.54L73.08 39.54L73.08 39.54Q73.25 39.64 73.38 39.64L73.38 39.64ZM114.36 37.04L114.36 37.04L110.30 39.45L109.54 39.14L109.54 39.14Q109.54 36.82 108.60 35.23L108.60 35.23L108.60 35.23Q107.65 33.64 105.68 33.64L105.68 33.64L105.68 33.64Q104.32 33.64 103.31 34.62L103.31 34.62L103.31 34.62Q102.30 35.60 101.79 37.11L101.79 37.11L101.79 37.11Q101.27 38.63 101.04 40.07L101.04 40.07L101.04 40.07Q100.80 41.51 100.80 42.80L100.80 42.80L100.80 42.80Q100.80 43.87 100.97 44.95L100.97 44.95L100.97 44.95Q101.14 46.02 101.58 47.15L101.58 47.15L101.58 47.15Q102.03 48.28 102.67 49.15L102.67 49.15L102.67 49.15Q103.31 50.02 104.38 50.56L104.38 50.56L104.38 50.56Q105.44 51.11 106.77 51.11L106.77 51.11L106.77 51.11Q110.10 51.11 114.04 48.08L114.04 48.08L114.57 48.21L115.00 48.83L115.00 48.83Q109.70 54.14 103.66 54.14L103.66 54.14L103.66 54.14Q101.57 54.14 99.97 53.38L99.97 53.38L99.97 53.38Q98.37 52.62 97.45 51.32L97.45 51.32L97.45 51.32Q96.53 50.02 96.06 48.47L96.06 48.47L96.06 48.47Q95.60 46.92 95.60 45.22L95.60 45.22L95.60 45.22Q95.60 43.23 95.99 41.38L95.99 41.38L95.99 41.38Q96.38 39.53 97.27 37.78L97.27 37.78L97.27 37.78Q98.16 36.03 99.50 34.74L99.50 34.74L99.50 34.74Q100.84 33.45 102.90 32.67L102.90 32.67L102.90 32.67Q104.95 31.88 107.48 31.88L107.48 31.88L107.48 31.88Q108.79 31.88 109.92 32.14L109.92 32.14L109.92 32.14Q111.05 32.40 112.05 32.97L112.05 32.97L112.05 32.97Q113.05 33.54 113.66 34.58L113.66 34.58L113.66 34.58Q114.27 35.62 114.36 37.04ZM133.98 37.04L133.98 37.04L129.92 39.45L129.17 39.14L129.17 39.14Q129.17 36.82 128.22 35.23L128.22 35.23L128.22 35.23Q127.28 33.64 125.30 33.64L125.30 33.64L125.30 33.64Q123.95 33.64 122.94 34.62L122.94 34.62L122.94 34.62Q121.93 35.60 121.41 37.11L121.41 37.11L121.41 37.11Q120.90 38.63 120.66 40.07L120.66 40.07L120.66 40.07Q120.43 41.51 120.43 42.80L120.43 42.80L120.43 42.80Q120.43 43.87 120.60 44.95L120.60 44.95L120.60 44.95Q120.77 46.02 121.21 47.15L121.21 47.15L121.21 47.15Q121.65 48.28 122.29 49.15L122.29 49.15L122.29 49.15Q122.94 50.02 124.00 50.56L124.00 50.56L124.00 50.56Q125.07 51.11 126.40 51.11L126.40 51.11L126.40 51.11Q129.73 51.11 133.66 48.08L133.66 48.08L134.20 48.21L134.63 48.83L134.63 48.83Q129.32 54.14 123.28 54.14L123.28 54.14L123.28 54.14Q121.20 54.14 119.60 53.38L119.60 53.38L119.60 53.38Q118.00 52.62 117.07 51.32L117.07 51.32L117.07 51.32Q116.15 50.02 115.69 48.47L115.69 48.47L115.69 48.47Q115.23 46.92 115.23 45.22L115.23 45.22L115.23 45.22Q115.23 43.23 115.61 41.38L115.61 41.38L115.61 41.38Q116 39.53 116.89 37.78L116.89 37.78L116.89 37.78Q117.78 36.03 119.13 34.74L119.13 34.74L119.13 34.74Q120.47 33.45 122.52 32.67L122.52 32.67L122.52 32.67Q124.57 31.88 127.11 31.88L127.11 31.88L127.11 31.88Q128.42 31.88 129.55 32.14L129.55 32.14L129.55 32.14Q130.67 32.40 131.67 32.97L131.67 32.97L131.67 32.97Q132.67 33.54 133.28 34.58L133.28 34.58L133.28 34.58Q133.90 35.62 133.98 37.04ZM140.01 43.42L140.01 43.42L140.01 43.42Q140.01 44.41 140.14 45.49L140.14 45.49L140.14 45.49Q140.27 46.58 140.63 47.85L140.63 47.85L140.63 47.85Q141.00 49.11 141.55 50.09L141.55 50.09L141.55 50.09Q142.11 51.07 143.09 51.73L143.09 51.73L143.09 51.73Q144.07 52.40 145.29 52.40L145.29 52.40L145.29 52.40Q146.47 52.40 147.39 52.06L147.39 52.06L147.39 52.06Q148.30 51.71 148.91 51.20L148.91 51.20L148.91 51.20Q149.53 50.68 149.96 49.80L149.96 49.80L149.96 49.80Q150.38 48.92 150.61 48.13L150.61 48.13L150.61 48.13Q150.84 47.33 150.96 46.13L150.96 46.13L150.96 46.13Q151.09 44.92 151.12 44.06L151.12 44.06L151.12 44.06Q151.14 43.21 151.14 41.92L151.14 41.92L151.14 41.92Q151.14 40.41 150.88 39.10L150.88 39.10L150.88 39.10Q150.62 37.79 150.04 36.62L150.04 36.62L150.04 36.62Q149.46 35.45 148.38 34.77L148.38 34.77L148.38 34.77Q147.29 34.10 145.81 34.10L145.81 34.10L145.81 34.10Q144.48 34.10 143.43 34.71L143.43 34.71L143.43 34.71Q142.39 35.32 141.77 36.27L141.77 36.27L141.77 36.27Q141.15 37.21 140.73 38.49L140.73 38.49L140.73 38.49Q140.31 39.77 140.16 40.97L140.16 40.97L140.16 40.97Q140.01 42.17 140.01 43.42ZM134.34 43.46L134.34 43.46L134.34 43.46Q134.34 38.65 137.64 35.49L137.64 35.49L137.64 35.49Q140.95 32.33 146.07 32.33L146.07 32.33L146.07 32.33Q151.18 32.33 153.87 34.74L153.87 34.74L153.87 34.74Q156.81 37.43 156.81 41.66L156.81 41.66L156.81 41.66Q156.81 44.30 156.19 46.43L156.19 46.43L156.19 46.43Q155.56 48.55 154.49 49.99L154.49 49.99L154.49 49.99Q153.41 51.43 151.90 52.39L151.90 52.39L151.90 52.39Q150.38 53.35 148.66 53.78L148.66 53.78L148.66 53.78Q146.93 54.21 144.93 54.21L144.93 54.21L144.93 54.21Q139.84 54.21 137.49 52.08L137.49 52.08L137.49 52.08Q134.34 49.22 134.34 43.46ZM175.25 33.21L175.25 33.21L179.79 31.71L180.30 32.14L180.30 32.14Q180.09 37.13 180.09 44.17L180.09 44.17L180.09 44.17Q180.09 44.32 180.05 44.99L180.05 44.99L180.05 44.99Q180.02 45.65 180.01 46.17L180.01 46.17L180.01 46.17Q180 46.69 180.08 47.41L180.08 47.41L180.08 47.41Q180.15 48.13 180.33 48.60L180.33 48.60L180.33 48.60Q180.52 49.07 180.91 49.41L180.91 49.41L180.91 49.41Q181.31 49.76 181.89 49.76L181.89 49.76L181.89 49.76Q182.79 49.76 184.88 48.51L184.88 48.51L185.33 48.51L185.67 49.39L185.67 49.39Q184.62 50.45 184.05 50.98L184.05 50.98L184.05 50.98Q183.48 51.52 182.44 52.38L182.44 52.38L182.44 52.38Q181.40 53.24 180.50 53.65L180.50 53.65L180.50 53.65Q179.61 54.05 178.82 54.05L178.82 54.05L178.82 54.05Q176.11 54.05 175.64 51.03L175.64 51.03L175.21 50.77L175.21 50.77Q174.91 50.94 173.90 51.47L173.90 51.47L173.90 51.47Q172.89 51.99 172.42 52.24L172.42 52.24L172.42 52.24Q171.94 52.49 171.04 52.91L171.04 52.91L171.04 52.91Q170.14 53.32 169.55 53.52L169.55 53.52L169.55 53.52Q168.96 53.71 168.24 53.88L168.24 53.88L168.24 53.88Q167.52 54.05 166.94 54.05L166.94 54.05L166.94 54.05Q164.21 54.05 162.66 52.62L162.66 52.62L162.66 52.62Q162.43 52.40 162.23 52.15L162.23 52.15L162.23 52.15Q162.04 51.91 161.91 51.56L161.91 51.56L161.91 51.56Q161.78 51.22 161.68 50.94L161.68 50.94L161.68 50.94Q161.59 50.66 161.53 50.16L161.53 50.16L161.53 50.16Q161.48 49.65 161.45 49.33L161.45 49.33L161.45 49.33Q161.42 49.01 161.41 48.33L161.41 48.33L161.41 48.33Q161.39 47.65 161.39 47.28L161.39 47.28L161.39 47.28Q161.39 46.90 161.39 46.04L161.39 46.04L161.39 46.04Q161.39 45.18 161.39 44.73L161.39 44.73L161.39 44.73Q161.39 44.21 161.42 43.26L161.42 43.26L161.42 43.26Q161.44 42.30 161.44 41.87L161.44 41.87L161.44 41.87Q161.44 41.49 161.45 40.77L161.45 40.77L161.45 40.77Q161.46 40.05 161.46 39.66L161.46 39.66L161.46 39.66Q161.46 39.27 161.45 38.66L161.45 38.66L161.45 38.66Q161.44 38.05 161.39 37.71L161.39 37.71L161.39 37.71Q161.35 37.36 161.28 36.90L161.28 36.90L161.28 36.90Q161.20 36.44 161.06 36.19L161.06 36.19L161.06 36.19Q160.92 35.94 160.75 35.70L160.75 35.70L160.75 35.70Q160.58 35.45 160.31 35.34L160.31 35.34L160.31 35.34Q160.04 35.23 159.72 35.23L159.72 35.23L159.72 35.23Q158.92 35.23 157.03 36.42L157.03 36.42L156.41 35.32L156.41 35.32Q157.51 34.50 158.06 34.12L158.06 34.12L158.06 34.12Q158.62 33.73 159.65 33.10L159.65 33.10L159.65 33.10Q160.69 32.46 161.56 32.17L161.56 32.17L161.56 32.17Q162.43 31.88 163.20 31.88L163.20 31.88L163.20 31.88Q164.21 31.88 164.90 32.22L164.90 32.22L164.90 32.22Q165.58 32.55 165.93 33.17L165.93 33.17L165.93 33.17Q166.27 33.79 166.40 34.48L166.40 34.48L166.40 34.48Q166.53 35.17 166.53 36.07L166.53 36.07L166.53 36.07Q166.53 36.87 166.38 39.58L166.38 39.58L166.38 39.58Q166.23 42.30 166.23 43.76L166.23 43.76L166.23 43.76Q166.23 45.22 166.31 46.22L166.31 46.22L166.31 46.22Q166.40 47.22 166.66 48.16L166.66 48.16L166.66 48.16Q166.92 49.09 167.38 49.63L167.38 49.63L167.38 49.63Q167.84 50.17 168.60 50.49L168.60 50.49L168.60 50.49Q169.37 50.81 170.46 50.81L170.46 50.81L170.46 50.81Q171.84 50.81 172.97 50.27L172.97 50.27L172.97 50.27Q174.11 49.74 175.47 48.71L175.47 48.71L175.47 48.71Q175.51 46.99 175.51 43.33L175.51 43.33L175.51 43.33Q175.51 38.05 175.25 33.21ZM190.60 37.08L190.60 37.08L190.60 37.08Q190.60 41.77 190.71 46.66L190.71 46.66L190.71 46.66Q190.82 51.56 191.03 52.49L191.03 52.49L186.20 53.88L185.66 53.58L185.66 53.58Q185.98 42.80 185.98 40.69L185.98 40.69L185.98 40.69Q185.98 40.56 185.98 40.33L185.98 40.33L185.98 40.33Q185.98 39.42 185.97 38.97L185.97 38.97L185.97 38.97Q185.96 38.52 185.92 37.79L185.92 37.79L185.92 37.79Q185.88 37.06 185.77 36.68L185.77 36.68L185.77 36.68Q185.66 36.31 185.49 35.89L185.49 35.89L185.49 35.89Q185.32 35.47 185.02 35.29L185.02 35.29L185.02 35.29Q184.71 35.11 184.31 35.11L184.31 35.11L184.31 35.11Q184.05 35.11 183.72 35.21L183.72 35.21L183.72 35.21Q183.38 35.32 183.00 35.52L183.00 35.52L183.00 35.52Q182.61 35.73 182.33 35.88L182.33 35.88L182.33 35.88Q182.05 36.03 181.67 36.27L181.67 36.27L181.67 36.27Q181.30 36.50 181.23 36.54L181.23 36.54L180.44 35.49L180.44 35.49Q181.38 34.74 182.10 34.21L182.10 34.21L182.10 34.21Q182.82 33.69 183.80 33.08L183.80 33.08L183.80 33.08Q184.78 32.46 185.74 32.15L185.74 32.15L185.74 32.15Q186.69 31.84 187.55 31.84L187.55 31.84L187.55 31.84Q189.10 31.84 189.73 32.67L189.73 32.67L189.73 32.67Q190.37 33.49 190.47 34.87L190.47 34.87L190.99 35.06L190.99 35.06Q195.97 31.97 199.75 31.97L199.75 31.97L199.75 31.97Q201.06 31.97 201.95 32.43L201.95 32.43L201.95 32.43Q202.83 32.89 203.28 33.42L203.28 33.42L203.28 33.42Q203.73 33.95 203.94 35.33L203.94 35.33L203.94 35.33Q204.16 36.72 204.19 37.52L204.19 37.52L204.19 37.52Q204.22 38.33 204.20 40.41L204.20 40.41L204.20 40.41Q204.20 41.25 204.20 41.70L204.20 41.70L204.20 41.70Q204.20 42.37 204.13 43.95L204.13 43.95L204.13 43.95Q204.05 45.53 204.05 46.23L204.05 46.23L204.05 46.23Q204.05 47.42 204.16 48.09L204.16 48.09L204.16 48.09Q204.27 48.77 204.38 48.97L204.38 48.97L204.38 48.97Q204.50 49.18 204.76 49.39L204.76 49.39L204.76 49.39Q205.21 49.84 206.01 49.84L206.01 49.84L206.01 49.84Q207.34 49.84 208.95 48.71L208.95 48.71L209.46 48.71L209.96 49.44L209.96 49.44Q207.66 51.73 206.65 52.51L206.65 52.51L206.65 52.51Q204.57 54.14 202.96 54.14L202.96 54.14L202.96 54.14Q201.52 54.14 200.59 53.28L200.59 53.28L200.59 53.28Q200.31 53.02 200.12 52.70L200.12 52.70L200.12 52.70Q199.93 52.38 199.82 51.83L199.82 51.83L199.82 51.83Q199.71 51.28 199.65 50.82L199.65 50.82L199.65 50.82Q199.58 50.36 199.56 49.41L199.56 49.41L199.56 49.41Q199.54 48.47 199.55 47.77L199.55 47.77L199.55 47.77Q199.56 47.07 199.57 45.63L199.57 45.63L199.57 45.63Q199.58 44.19 199.58 43.14L199.58 43.14L199.58 43.14Q199.58 41.36 199.54 40.23L199.54 40.23L199.54 40.23Q199.50 39.10 199.21 37.68L199.21 37.68L199.21 37.68Q198.92 36.27 198.38 35.75L198.38 35.75L198.38 35.75Q197.65 35.06 195.93 35.06L195.93 35.06L195.93 35.06Q194.34 35.06 190.60 37.08ZM216.82 31.88L216.82 31.88L216.82 26.04L216.82 26.04Q216.82 25.16 215.73 25.24L215.73 25.24L206.88 25.67L206.49 25.29L206.49 22.73L206.83 22.39L206.83 22.39Q208.42 22.43 212.77 22.60L212.77 22.60L212.77 22.60Q217.12 22.77 219.51 22.77L219.51 22.77L219.51 22.77Q221.48 22.77 223.62 22.70L223.62 22.70L223.62 22.70Q225.76 22.62 228.58 22.48L228.58 22.48L228.58 22.48Q231.41 22.34 232.70 22.30L232.70 22.30L233.15 22.73L233.15 24.94L232.66 25.33L232.66 25.33Q232.53 25.33 230.81 25.29L230.81 25.29L230.81 25.29Q229.09 25.24 226.89 25.20L226.89 25.20L226.89 25.20Q224.69 25.16 223.38 25.16L223.38 25.16L223.38 25.16Q222.84 25.16 222.64 25.29L222.64 25.29L222.64 25.29Q222.45 25.42 222.45 25.82L222.45 25.82L222.45 31.88L222.45 31.88Q222.45 40.48 223.20 52.40L223.20 52.40L216.87 54.21L216.48 53.67L216.48 53.67Q216.82 42.04 216.82 31.88ZM251.66 33.69L254.30 32.01L254.92 32.42L254.92 32.42Q254.21 39.75 254.21 44.43L254.21 44.43L254.21 44.43Q254.21 46.28 254.24 47.09L254.24 47.09L254.24 47.09Q254.26 47.91 254.39 48.87L254.39 48.87L254.39 48.87Q254.52 49.82 254.83 50.16L254.83 50.16L254.83 50.16Q255.14 50.49 255.68 50.49L255.68 50.49L255.68 50.49Q256.71 50.49 258.75 48.64L258.75 48.64L259.59 49.56L259.59 49.56Q258.81 50.49 258.10 51.21L258.10 51.21L258.10 51.21Q257.39 51.93 256.45 52.68L256.45 52.68L256.45 52.68Q255.50 53.43 254.44 53.84L254.44 53.84L254.44 53.84Q253.38 54.25 252.32 54.25L252.32 54.25L252.32 54.25Q249.98 54.25 249.60 51.33L249.60 51.33L249.04 51.11L249.04 51.11Q244.72 54.38 240.85 54.38L240.85 54.38L240.85 54.38Q239.15 54.38 237.89 53.50L237.89 53.50L237.89 53.50Q236.62 52.62 235.93 51.20L235.93 51.20L235.93 51.20Q235.24 49.78 234.92 48.29L234.92 48.29L234.92 48.29Q234.60 46.79 234.60 45.31L234.60 45.31L234.60 45.31Q234.60 38.63 237.30 35.21L237.30 35.21L237.30 35.21Q239.99 31.80 245.23 31.80L245.23 31.80L245.23 31.80Q248.56 31.80 251.66 33.69L251.66 33.69ZM249.68 39.14L249.68 39.14L249.68 39.14Q249.68 33.47 245.64 33.47L245.64 33.47L245.64 33.47Q244.42 33.47 243.43 33.93L243.43 33.93L243.43 33.93Q242.44 34.40 241.81 35.21L241.81 35.21L241.81 35.21Q241.17 36.03 240.71 37.02L240.71 37.02L240.71 37.02Q240.25 38.01 240.01 39.20L240.01 39.20L240.01 39.20Q239.78 40.39 239.67 41.44L239.67 41.44L239.67 41.44Q239.56 42.50 239.56 43.59L239.56 43.59L239.56 43.59Q239.56 44.86 239.78 46.04L239.78 46.04L239.78 46.04Q239.99 47.22 240.48 48.38L240.48 48.38L240.48 48.38Q240.96 49.54 241.92 50.24L241.92 50.24L241.92 50.24Q242.87 50.94 244.18 50.94L244.18 50.94L244.18 50.94Q246.78 50.94 249.34 48.55L249.34 48.55L249.34 48.55Q249.68 45.98 249.68 39.14ZM274.91 32.21L275.43 32.21L277.06 33.77L277.06 34.22L277.06 34.22Q272.53 36.87 267.91 41.96L267.91 41.96L267.91 41.96Q268.81 43.72 269.41 44.78L269.41 44.78L269.41 44.78Q270.02 45.85 270.96 47.33L270.96 47.33L270.96 47.33Q271.91 48.81 272.74 49.56L272.74 49.56L272.74 49.56Q273.58 50.32 274.29 50.32L274.29 50.32L274.29 50.32Q275.71 50.32 277.47 48.55L277.47 48.55L277.90 48.55L278.39 49.18L278.39 49.18Q274.91 54.25 271.78 54.25L271.78 54.25L271.78 54.25Q271.20 54.25 270.67 54.05L270.67 54.05L270.67 54.05Q270.14 53.86 269.79 53.61L269.79 53.61L269.79 53.61Q269.44 53.37 269.02 52.87L269.02 52.87L269.02 52.87Q268.60 52.38 268.38 52.08L268.38 52.08L268.38 52.08Q268.17 51.78 267.78 51.15L267.78 51.15L264.84 45.70L264.39 45.70L264.39 45.70Q261.12 49.61 259.25 53.88L259.25 53.88L258.54 54.05L256.44 52.96L256.44 52.66L256.44 52.66Q260.13 47.37 263.79 43.72L263.79 43.72L263.79 43.72Q262.90 41.74 260.73 37.96L260.73 37.96L260.73 37.96Q260.30 37.23 259.96 36.74L259.96 36.74L259.96 36.74Q259.62 36.24 259.02 35.78L259.02 35.78L259.02 35.78Q258.41 35.32 257.83 35.32L257.83 35.32L257.83 35.32Q256.78 35.32 254.80 36.72L254.80 36.72L254.01 35.66L254.01 35.66Q254.91 34.87 255.49 34.41L255.49 34.41L255.49 34.41Q256.07 33.95 256.97 33.32L256.97 33.32L256.97 33.32Q257.88 32.70 258.74 32.40L258.74 32.40L258.74 32.40Q259.60 32.10 260.43 32.10L260.43 32.10L260.43 32.10Q262.00 32.10 262.78 32.76L262.78 32.76L262.78 32.76Q264.49 34.33 266.75 39.55L266.75 39.55L266.75 39.55Q266.81 39.66 266.84 39.72L266.84 39.72L266.84 39.72Q266.86 39.79 266.90 39.89L266.90 39.89L266.90 39.89Q266.94 39.98 266.99 40.07L266.99 40.07L267.24 40.07L267.24 40.07Q271.67 35.00 274.91 32.21L274.91 32.21Z" transform="rotate(0 140.47500848770142 38.34000015258789)"></path><defs id="SvgjsDefs1194"></defs></svg></g><g id="SvgjsG1197" transform="rotate(0 177.5 130.5)"><svg xmlns="http://www.w3.org/2000/svg" xmlns:xlink="http://www.w3.org/1999/xlink" width="176.15625" viewBox="-88.68383026123047 -32.95195388793945 176.1590576171875 38.52214050292969" overflow="visible" style="overflow: visible;" transform="" version="1.1" xmlns:svgjs="http://svgjs.com/svgjs" preserveAspectRatio="none" height="39" x="89.421875" y="111" fill="#000000" stroke="none"><g transform="rotate(0 -0.6043014526367188 -13.69088363647461)"><path transform="translate(-7.3175 0) rotate(-5.9258186207937245 6.5024999999999995 775.1906362176854)" stroke="none" fill="rgb(35, 35, 35)" d="M5.17 0.99L5.17 0.99Q4.37 0.99 3.94 0.92L3.94 0.92L3.94 0.92Q3.51 0.85 3.01 0.63L3.01 0.63L3.01 0.63Q2.48 0.36 2.21-0.14L2.21-0.14L2.21-0.14Q2.21-0.67 2.70-0.67L2.70-0.67L2.70-0.67Q3.19-0.67 3.96-0.36L3.96-0.36L3.96-0.36Q4.68 0 5.17 0L5.17 0L5.17 0Q6.17 0 7.00-0.81L7.00-0.81L7.00-0.81Q7.83-1.62 8.28-2.92L8.28-2.92L8.28-2.92Q9.18-5.49 9.18-7.47L9.18-7.47L9.18-7.47Q9.18-9.67 8.55-11.92L8.55-11.92L8.55-11.92Q7.92-14.17 6.88-16.16L6.88-16.16L6.88-16.16Q6.66-16.65 6.12-17.64L6.12-17.64L6.12-17.64Q5.00-19.89 4.41-21.15L4.41-21.15L4.41-21.15Q3.82-22.41 3.38-23.94L3.38-23.94L3.38-23.94Q2.75-25.96 2.75-28.30L2.75-28.30L2.75-28.30Q2.75-29.79 3.22-31.16L3.22-31.16L3.22-31.16Q3.69-32.53 4.72-33.52L4.72-33.52L4.72-33.52Q5.85-34.56 7.25-34.56L7.25-34.56L7.25-34.56Q7.79-34.56 8.55-34.13L8.55-34.13L8.55-34.13Q9.31-33.70 9.31-33.30L9.31-33.30L9.31-33.30Q9.31-32.94 9.04-32.94L9.04-32.94L9.04-32.94Q8.78-32.94 8.32-33.16L8.32-33.16L8.32-33.16Q7.92-33.39 7.56-33.39L7.56-33.39L7.56-33.39Q6.52-33.39 5.74-32.63L5.74-32.63L5.74-32.63Q4.95-31.86 4.59-30.73L4.59-30.73L4.59-30.73Q4.27-29.79 4.27-28.66L4.27-28.66L4.27-28.66Q4.27-26.91 4.72-25.04L4.72-25.04L4.72-25.04Q5.17-23.18 5.94-21.55L5.94-21.55L7.51-18.27L7.96-17.32L7.96-17.32Q8.91-15.39 9.43-14.13L9.43-14.13L9.43-14.13Q9.95-12.87 10.30-11.29L10.30-11.29L10.30-11.29Q10.80-9.18 10.80-7.25L10.80-7.25L10.80-7.25Q10.80-4.63 9.45-1.93L9.45-1.93L9.45-1.93Q8.78-0.63 7.65 0.18L7.65 0.18L7.65 0.18Q6.52 0.99 5.17 0.99L5.17 0.99Z"></path>,<path transform="translate(-6.26 0) rotate(-4.860434585785425 6.4125 775.1906362176854)" stroke="none" fill="rgb(35, 35, 35)" d="M4.09 0.58L4.09 0.58Q3.28 0.58 3.19-0.36L3.19-0.36L3.19-0.94L3.19-0.94Q3.24-1.17 3.24-1.48L3.24-1.48L3.06-1.67L3.06-1.67Q3.42-2.61 3.42-3.51L3.42-3.51L3.42-3.51Q3.42-4.54 3.28-6.48L3.28-6.48L3.19-9.45L3.19-9.45Q3.19-11.70 3.33-16.20L3.33-16.20L3.33-16.20Q3.51-20.20 3.51-22.99L3.51-22.99L3.42-25.70L3.42-25.70Q3.33-26.91 3.33-28.39L3.33-28.39L3.33-28.39Q3.33-29.07 3.65-29.36L3.65-29.36L3.65-29.36Q3.96-29.65 4.63-29.65L4.63-29.65L4.63-29.65Q5.08-29.65 5.35-29.38L5.35-29.38L5.35-29.38Q5.44-29.34 6.66-29.20L6.66-29.20L6.66-29.20Q7.79-29.07 8.59-28.80L8.59-28.80L8.59-28.80Q9.45-28.53 9.45-28.13L9.45-28.13L9.45-28.13Q9.45-27.68 8.59-27.22L8.59-27.22L8.59-27.22Q6.03-28.08 4.95-28.08L4.95-28.08L4.72-27.81L4.72-27.81Q4.77-27.40 4.77-25.88L4.77-25.88L4.77-25.88Q4.77-23.94 4.68-22.41L4.68-22.41L4.68-22.41Q4.63-20.84 4.63-18.90L4.63-18.90L4.63-18.90Q4.63-17.64 5.26-17.64L5.26-17.64L5.98-17.68L5.98-17.68Q6.34-17.73 6.75-17.73L6.75-17.73L6.75-17.73Q8.50-17.73 8.50-16.92L8.50-16.92L8.50-16.92Q8.50-16.43 8.28-16.09L8.28-16.09L8.28-16.09Q8.05-15.75 7.60-15.75L7.60-15.75L7.60-15.75Q6.93-15.75 6.57-16.11L6.57-16.11L5.13-16.34L4.91-16.34L4.68-16.11L4.68-15.97L4.68-15.97Q4.77-15.21 4.77-12.42L4.77-12.42L4.77-12.42Q4.77-10.66 4.72-9.22L4.72-9.22L4.68-6.03L4.68-6.03Q4.68-4.27 4.81-2.43L4.81-2.43L4.81-2.43Q4.86-1.40 5.26-1.06L5.26-1.06L5.26-1.06Q5.67-0.72 6.75-0.72L6.75-0.72L7.56-0.77L7.56-0.77Q7.96-0.81 8.46-0.81L8.46-0.81L8.46-0.81Q9.76-0.81 9.76-0.22L9.76-0.22L9.76-0.22Q9.76 0.58 7.79 0.58L7.79 0.58L4.09 0.58Z"></path>,<path transform="translate(-7.0249999999999995 0) rotate(-3.818002112569791 7.2675 775.1906362176854)" stroke="none" fill="rgb(35, 35, 35)" d="M10.75 0.77L10.13 0.54L10.13 0.54Q9.58-0.04 8.96-2.56L8.96-2.56L8.96-2.56Q8.32-5.08 7.79-8.23L7.79-8.23L7.79-8.23Q7.42-10.80 6.75-13.32L6.75-13.32L6.75-13.32Q6.21-15.57 5.71-15.57L5.71-15.57L5.58-15.57L5.58-15.57Q4.59-15.57 4.59-14.94L4.59-14.94L4.59-14.94Q4.59-11.70 4.95-5.08L4.95-5.08L4.95-5.08Q5.13-1.03 5.35-0.36L5.35-0.36L5.00 0.40L4.37 0.40L4.00 0.04L4.00 0.04Q3.28-20.75 3.28-28.30L3.28-28.30L3.28-28.30Q3.28-28.80 3.35-29.11L3.35-29.11L3.35-29.11Q3.42-29.43 3.65-29.70L3.65-29.70L3.65-29.70Q3.82-30.02 4.27-30.02L4.27-30.02L4.27-30.02Q6.57-30.02 7.96-28.89L7.96-28.89L7.96-28.89Q9.36-27.77 9.36-25.65L9.36-25.65L9.36-22.36L9.36-22.36Q9.36-21.51 8.80-20.07L8.80-20.07L8.80-20.07Q8.23-18.63 7.56-17.41L7.56-17.41L6.97-16.29L6.97-16.29Q7.47-13.99 8.93-8.03L8.93-8.03L8.93-8.03Q10.39-2.07 10.53-1.71L10.53-1.71L10.53-1.71Q10.57-1.67 10.64-1.48L10.64-1.48L10.64-1.48Q10.71-1.30 10.93-0.94L10.93-0.94L10.93-0.94Q11.25-0.32 11.25 0.14L11.25 0.14L11.25 0.14Q11.25 0.77 10.75 0.77L10.75 0.77ZM4.81-16.70L4.81-16.70Q5.67-16.70 6.34-17.55L6.34-17.55L6.34-17.55Q7.02-18.40 7.42-19.75L7.42-19.75L7.42-19.75Q8.14-22.50 8.14-24.12L8.14-24.12L8.14-24.12Q8.14-25.15 8.03-25.83L8.03-25.83L8.03-25.83Q7.92-26.50 7.65-27.27L7.65-27.27L7.65-27.27Q7.11-28.84 5.08-28.84L5.08-28.84L5.08-28.84Q4.86-28.84 4.72-28.46L4.72-28.46L4.72-28.46Q4.59-28.08 4.59-27.68L4.59-27.68L4.59-27.68Q4.59-24.66 4.68-22.23L4.68-22.23L4.68-22.23Q4.72-19.80 4.72-16.79L4.72-16.79L4.81-16.70Z"></path>,<path transform="translate(-8.51 0) rotate(-2.599019164025955 7.5600000000000005 775.1906362176854)" stroke="none" fill="rgb(35, 35, 35)" d="M7.25 0.54L6.75 0.14L6.75 0.14Q6.75-3.33 5.65-10.08L5.65-10.08L5.65-10.08Q4.54-16.83 2.75-24.84L2.75-24.84L2.38-26.23L1.80-28.30L1.80-28.30Q1.53-29.25 1.53-29.47L1.53-29.47L1.53-29.47Q1.53-29.61 1.73-29.81L1.73-29.81L1.73-29.81Q1.93-30.02 2.11-30.02L2.11-30.02L2.11-30.02Q2.75-30.02 3.10-28.62L3.10-28.62L3.10-28.62Q3.28-28.04 3.44-27.29L3.44-27.29L3.44-27.29Q3.60-26.55 3.69-26.23L3.69-26.23L3.69-26.23Q3.78-25.56 3.82-25.43L3.82-25.43L3.82-25.43Q4.68-21.96 4.86-21.02L4.86-21.02L5.31-18.72L5.71-16.56L6.12-14.26L6.12-14.26Q6.25-13.05 6.48-12.15L6.48-12.15L7.15-7.74L7.15-7.74Q7.15-7.56 7.47-5.44L7.47-5.44L7.79-3.24L7.79-3.24Q8.69-6.17 9.31-12.15L9.31-12.15L9.31-12.15Q9.95-17.73 11.12-23.36L11.12-23.36L11.12-23.36Q12.11-28.21 12.51-30.42L12.51-30.42L13.09-30.64L13.09-30.64Q13.28-30.60 13.43-30.46L13.43-30.46L13.43-30.46Q13.59-30.33 13.59-30.20L13.59-30.20L13.59-30.20Q13.59-29.20 13.18-27.49L13.18-27.49L12.91-26.32L12.15-22.77L12.15-22.77Q11.47-19.84 11.23-18.27L11.23-18.27L11.23-18.27Q10.98-16.70 10.66-13.72L10.66-13.72L10.57-12.69L10.57-12.69Q10.35-10.26 10.24-9.40L10.24-9.40L10.24-9.40Q10.13-8.55 9.72-7.20L9.72-7.20L9.72-7.20Q9.36-5.85 9.13-4.81L9.13-4.81L9.04-3.78L9.04-3.78Q8.96-2.21 8.69-0.99L8.69-0.99L8.69-0.99Q8.32 0.54 7.25 0.54L7.25 0.54ZM7.74-2.92L7.74-3.10L7.69-3.01L7.74-2.92Z"></path>,<path transform="translate(-5.8325 0) rotate(-1.4736079674060658 5.422499999999999 775.1906362176854)" stroke="none" fill="rgb(35, 35, 35)" d="M5.67 0L5.67 0Q4.63 0 4.46-0.45L4.46-0.45L4.46-0.45Q4.23-0.45 4.09-0.40L4.09-0.40L3.73-0.40L3.73-0.40Q2.75-0.40 2.48-0.85L2.48-0.85L2.48-0.85Q2.48-1.17 2.83-1.40L2.83-1.40L3.06-1.62L4.37-1.62L4.54-1.80L4.63-2.21L4.68-2.75L4.68-2.75Q4.68-5.49 4.54-7.65L4.54-7.65L4.46-9.31L4.37-12.60L4.37-12.60Q4.37-14.35 4.50-17.86L4.50-17.86L4.59-23.09L4.59-23.09Q4.59-26.50 4.37-28.30L4.37-28.30L4.37-28.30Q3.96-28.44 3.01-28.44L3.01-28.44L2.52-28.39L2.52-28.39Q2.25-28.35 1.93-28.35L1.93-28.35L1.93-28.35Q1.08-28.35 1.08-29.11L1.08-29.11L1.08-29.11Q1.08-29.29 1.48-29.47L1.48-29.47L1.48-29.47Q1.89-29.65 2.16-29.65L2.16-29.65L2.16-29.65Q3.87-29.65 5.58-29.47L5.58-29.47L5.58-29.47Q6.61-29.43 7.65-29.07L7.65-29.07L7.65-29.07Q8.46-28.80 8.46-28.30L8.46-28.30L8.46-28.30Q8.46-28.21 8.32-27.95L8.32-27.95L7.29-27.86L7.29-27.86Q6.97-28.13 5.98-28.13L5.98-28.13L5.76-27.99L5.76-27.99Q5.89-27.58 5.89-25.61L5.89-25.61L5.89-25.61Q5.89-22.63 5.85-20.25L5.85-20.25L5.76-14.89L5.76-14.89Q5.76-12.87 5.94-9.99L5.94-9.99L5.94-9.99Q6.08-6.71 6.08-5.04L6.08-5.04L6.08-4.46L6.08-4.46Q6.03-4.14 6.03-3.65L6.03-3.65L6.03-3.65Q6.03-2.61 6.17-2.38L6.17-2.38L6.12-2.29L6.12-2.29Q6.12-1.84 7.11-1.84L7.11-1.84L7.11-1.84Q7.51-1.84 7.79-1.89L7.79-1.89L8.46-1.89L8.46-1.89Q9.76-1.89 9.76-1.26L9.76-1.26L9.76-1.26Q9.76-0.85 9.49-0.61L9.49-0.61L9.49-0.61Q9.22-0.36 8.78-0.36L8.78-0.36L8.78-0.36Q8.37-0.36 8.05-0.45L8.05-0.45L8.05-0.45Q7.69-0.49 7.29-0.49L7.29-0.49L7.29-0.49Q7.02-0.49 6.48-0.27L6.48-0.27L6.48-0.27Q5.94 0 5.67 0L5.67 0Z"></path>,<path transform="translate(-6.9125 0) rotate(-0.47354760826920117 6.794999999999999 775.1906362176854)" stroke="none" fill="rgb(35, 35, 35)" d="M7.65 0.72L6.57 0.32L6.57 0.32Q5.71 0.04 5.11-0.45L5.11-0.45L5.11-0.45Q4.50-0.94 3.96-1.93L3.96-1.93L3.96-1.93Q3.01-3.73 2.83-7.11L2.83-7.11L2.83-7.11Q2.75-8.64 2.75-9.81L2.75-9.81L2.75-14.94L2.75-14.94Q2.75-17.86 2.92-20.61L2.92-20.61L2.92-20.61Q3.06-22.63 3.33-24.03L3.33-24.03L3.33-24.03Q3.60-25.43 4.18-26.82L4.18-26.82L4.18-26.82Q4.81-28.26 5.58-28.84L5.58-28.84L5.58-28.84Q5.89-29.11 6.79-29.47L6.79-29.47L6.79-29.47Q7.38-29.70 7.92-29.97L7.92-29.97L9.72-29.97L9.86-29.97L9.86-29.97Q9.90-29.92 9.99-29.92L9.99-29.92L10.21-29.88L10.39-29.74L10.39-29.74Q10.53-29.61 10.53-29.56L10.53-29.56L10.53-29.56Q10.57-29.47 10.57-29.29L10.57-29.29L9.99-28.62L8.10-28.62L8.10-28.62Q7.25-28.62 6.55-27.79L6.55-27.79L6.55-27.79Q5.85-26.95 5.49-25.70L5.49-25.70L5.49-25.70Q5.13-24.57 4.91-23.04L4.91-23.04L4.91-23.04Q4.68-21.51 4.63-20.38L4.63-20.38L4.63-20.38Q4.54-18.95 4.54-18.40L4.54-18.40L4.46-18.18L4.46-18.18Q4.46-15.66 4.37-13.63L4.37-13.63L4.27-9.09L4.27-9.09Q4.27-7.11 4.54-5.44L4.54-5.44L4.54-5.44Q4.77-3.65 5.85-2.21L5.85-2.21L5.85-2.21Q6.88-0.77 9.04-0.77L9.04-0.77L9.04-0.77Q9.72-0.77 10.17-1.17L10.17-1.17L10.17-1.17Q10.84-1.17 10.84-0.67L10.84-0.67L10.84-0.67Q10.84-0.36 10.28 0.07L10.28 0.07L10.28 0.07Q9.72 0.49 9.13 0.72L9.13 0.72L7.65 0.72Z"></path>,<path transform="translate(-6.26 0) rotate(0.5600573411800216 6.4125 775.1906362176854)" stroke="none" fill="rgb(35, 35, 35)" d="M4.09 0.58L4.09 0.58Q3.28 0.58 3.19-0.36L3.19-0.36L3.19-0.94L3.19-0.94Q3.24-1.17 3.24-1.48L3.24-1.48L3.06-1.67L3.06-1.67Q3.42-2.61 3.42-3.51L3.42-3.51L3.42-3.51Q3.42-4.54 3.28-6.48L3.28-6.48L3.19-9.45L3.19-9.45Q3.19-11.70 3.33-16.20L3.33-16.20L3.33-16.20Q3.51-20.20 3.51-22.99L3.51-22.99L3.42-25.70L3.42-25.70Q3.33-26.91 3.33-28.39L3.33-28.39L3.33-28.39Q3.33-29.07 3.65-29.36L3.65-29.36L3.65-29.36Q3.96-29.65 4.63-29.65L4.63-29.65L4.63-29.65Q5.08-29.65 5.35-29.38L5.35-29.38L5.35-29.38Q5.44-29.34 6.66-29.20L6.66-29.20L6.66-29.20Q7.79-29.07 8.59-28.80L8.59-28.80L8.59-28.80Q9.45-28.53 9.45-28.13L9.45-28.13L9.45-28.13Q9.45-27.68 8.59-27.22L8.59-27.22L8.59-27.22Q6.03-28.08 4.95-28.08L4.95-28.08L4.72-27.81L4.72-27.81Q4.77-27.40 4.77-25.88L4.77-25.88L4.77-25.88Q4.77-23.94 4.68-22.41L4.68-22.41L4.68-22.41Q4.63-20.84 4.63-18.90L4.63-18.90L4.63-18.90Q4.63-17.64 5.26-17.64L5.26-17.64L5.98-17.68L5.98-17.68Q6.34-17.73 6.75-17.73L6.75-17.73L6.75-17.73Q8.50-17.73 8.50-16.92L8.50-16.92L8.50-16.92Q8.50-16.43 8.28-16.09L8.28-16.09L8.28-16.09Q8.05-15.75 7.60-15.75L7.60-15.75L7.60-15.75Q6.93-15.75 6.57-16.11L6.57-16.11L5.13-16.34L4.91-16.34L4.68-16.11L4.68-15.97L4.68-15.97Q4.77-15.21 4.77-12.42L4.77-12.42L4.77-12.42Q4.77-10.66 4.72-9.22L4.72-9.22L4.68-6.03L4.68-6.03Q4.68-4.27 4.81-2.43L4.81-2.43L4.81-2.43Q4.86-1.40 5.26-1.06L5.26-1.06L5.26-1.06Q5.67-0.72 6.75-0.72L6.75-0.72L7.56-0.77L7.56-0.77Q7.96-0.81 8.46-0.81L8.46-0.81L8.46-0.81Q9.76-0.81 9.76-0.22L9.76-0.22L9.76-0.22Q9.76 0.58 7.79 0.58L7.79 0.58L4.09 0.58Z"></path>,<path transform="translate(-6.035 0) rotate(1.5248076052512456 5.58 775.1906362176854)" stroke="none" fill="rgb(35, 35, 35)" d="M3.73 0.54L3.73 0.54Q3.24 0.45 2.79 0.16L2.79 0.16L2.79 0.16Q2.34-0.14 2.29-0.54L2.29-0.54L2.52-0.90L2.52-0.90Q2.70-0.90 3.33-0.77L3.33-0.77L3.33-0.77Q3.82-0.58 4.14-0.58L4.14-0.58L4.14-0.58Q5.13-0.58 5.89-1.37L5.89-1.37L5.89-1.37Q6.66-2.16 7.06-3.42L7.06-3.42L7.06-3.42Q7.69-5.76 7.69-7.83L7.69-7.83L7.69-7.83Q7.69-10.93 5.80-14.49L5.80-14.49L5.80-14.49Q4.63-16.56 4.00-17.77L4.00-17.77L4.00-17.77Q3.38-18.99 2.88-20.56L2.88-20.56L2.88-20.56Q2.29-22.41 2.29-24.12L2.29-24.12L2.29-24.12Q2.29-25.74 3.10-27.95L3.10-27.95L3.10-27.95Q3.51-28.98 4.25-29.63L4.25-29.63L4.25-29.63Q5.00-30.29 5.85-30.29L5.85-30.29L5.85-30.29Q6.43-30.29 7.00-29.88L7.00-29.88L7.00-29.88Q7.56-29.47 7.56-29.02L7.56-29.02L7.56-29.02Q7.56-28.66 6.97-28.66L6.97-28.66L6.97-28.66Q6.79-28.66 6.52-28.80L6.52-28.80L6.52-28.80Q6.25-28.93 6.03-28.93L6.03-28.93L6.03-28.93Q5.35-28.93 4.81-28.39L4.81-28.39L4.81-28.39Q4.27-27.86 4.00-27L4.00-27L4.00-27Q3.46-25.33 3.46-23.94L3.46-23.94L3.46-23.94Q3.46-23.09 3.69-22.18L3.69-22.18L3.69-22.18Q3.73-21.91 3.78-21.73L3.78-21.73L3.78-21.73Q3.82-21.55 3.82-21.46L3.82-21.46L4.09-20.56L4.32-19.75L4.68-18.95L4.68-18.95Q4.81-18.63 4.97-18.38L4.97-18.38L4.97-18.38Q5.13-18.13 5.26-17.91L5.26-17.91L5.80-16.96L5.80-16.96Q5.98-16.70 6.57-15.68L6.57-15.68L6.57-15.68Q7.15-14.67 7.65-13.54L7.65-13.54L7.65-13.54Q8.10-12.60 8.32-11.77L8.32-11.77L8.32-11.77Q8.55-10.93 8.73-9.76L8.73-9.76L8.73-9.76Q8.87-8.64 8.87-7.29L8.87-7.29L8.87-7.29Q8.87-5.13 8.28-3.24L8.28-3.24L8.28-3.24Q7.47-0.99 5.94-0.09L5.94-0.09L5.94-0.09Q5.08 0.45 3.96 0.45L3.96 0.45L3.73 0.54ZM7.29-28.80L7.33-28.80L7.33-28.80Q7.33-28.84 7.29-28.84L7.29-28.84L7.29-28.80Z"></path>,<path transform="translate(-4.3475 0) rotate(2.339489965293497 0 775.1906362176854)" stroke="none" fill="rgb(35, 35, 35)" d=""></path>,<path transform="translate(-6.575 0) rotate(3.1965444394145166 6.074999999999999 775.1906362176854)" stroke="none" fill="rgb(35, 35, 35)" d="M6.43-0.18L6.43-0.18Q5.35-0.22 3.69-0.22L3.69-0.22L3.69-0.22Q3.38-0.22 3.13-0.45L3.13-0.45L3.13-0.45Q2.88-0.67 2.88-0.94L2.88-0.94L2.88-0.94Q2.88-1.53 3.65-1.53L3.65-1.53L5.40-1.53L5.40-1.53Q5.40-6.71 5.08-14.58L5.08-14.58L5.08-14.58Q4.91-20.88 4.72-24.48L4.72-24.48L4.77-26.77L4.77-29.74L4.77-29.74Q4.77-31.99 4.68-32.63L4.68-32.63L3.10-32.63L3.10-32.63Q2.65-32.63 2.65-33.25L2.65-33.25L2.65-33.25Q2.65-33.66 3.01-33.88L3.01-33.88L3.01-33.88Q3.33-34.02 4.68-34.02L4.68-34.02L5.94-34.02L5.94-34.02Q6.61-33.98 7.65-33.98L7.65-33.98L7.65-33.98Q8.01-33.98 8.23-33.82L8.23-33.82L8.23-33.82Q8.46-33.66 8.46-33.34L8.46-33.34L8.46-33.34Q8.46-33.07 8.32-32.85L8.32-32.85L8.32-32.85Q8.19-32.63 7.92-32.63L7.92-32.63L7.92-32.63Q7.60-32.63 7.38-32.67L7.38-32.67L6.84-32.67L6.39-32.67L6.39-32.67Q5.94-32.67 5.85-32.58L5.85-32.58L5.76-32.40L5.76-32.40Q5.76-28.89 6.34-18.22L6.34-18.22L6.34-18.22Q6.88-8.37 6.88-4.05L6.88-4.05L6.88-2.79L6.88-2.79Q6.84-2.21 6.84-1.57L6.84-1.57L8.46-1.57L8.46-1.57Q9.49-1.57 9.49-0.94L9.49-0.94L9.49-0.94Q9.49-0.67 9.29-0.43L9.29-0.43L9.29-0.43Q9.09-0.18 8.87-0.18L8.87-0.18L6.43-0.18Z"></path>,<path transform="translate(-10.85 0) rotate(4.563829787234045 10.530000000000001 775.1906362176854)" stroke="none" fill="rgb(35, 35, 35)" d="M14.71 0.18L14.71 0.18Q14.35 0.18 14.20-0.09L14.20-0.09L14.20-0.09Q14.04-0.36 13.90-0.90L13.90-0.90L13.90-0.90Q13.86-1.26 13.72-1.53L13.72-1.53L13.77-1.67L13.77-1.67Q13.41-3.78 12.24-6.84L12.24-6.84L11.43-9.18L11.43-9.18Q11.34-9.27 10.57-11.47L10.57-11.47L10.21-12.55L10.21-12.55Q6.17-25.06 5.13-26.10L5.13-26.10L5.13-26.10Q4.77-24.88 4.77-22.95L4.77-22.95L4.77-22.95Q4.77-21.91 4.81-21.15L4.81-21.15L4.86-19.39L4.81-18.31L4.81-18.31Q4.77-17.82 4.77-17.23L4.77-17.23L4.77-17.23Q4.77-16.25 4.86-15.52L4.86-15.52L4.86-15.52Q4.95-14.08 4.95-14.08L4.95-14.08L4.81-14.08L4.81-14.08Q4.81-6.57 5.13-5.80L5.13-5.80L5.13-1.75L5.13-1.75Q5.31-1.40 5.31-0.81L5.31-0.81L5.31-0.81Q5.31-0.45 5.06-0.18L5.06-0.18L5.06-0.18Q4.81 0.09 4.46 0.09L4.46 0.09L4.46 0.09Q3.51 0.09 3.51-2.34L3.51-2.34L3.60-3.78L3.60-3.78Q3.69-4.46 3.69-5.26L3.69-5.26L3.69-5.26Q3.69-7.42 3.55-11.74L3.55-11.74L3.55-11.74Q3.42-16.06 3.42-18.22L3.42-18.22L3.42-18.22Q3.42-19.53 3.55-22.23L3.55-22.23L3.55-22.23Q3.69-24.88 3.69-26.19L3.69-26.19L3.69-26.77L3.69-26.77Q3.69-28.98 4.50-29.65L4.50-29.65L4.63-29.52L5.08-29.61L5.08-29.61Q5.26-29.56 5.49-29.34L5.49-29.34L5.49-29.34Q5.67-29.16 5.67-28.93L5.67-28.93L5.76-28.66L5.76-28.66Q5.76-28.57 5.78-28.51L5.78-28.51L5.78-28.51Q5.80-28.44 5.80-28.44L5.80-28.44L5.80-28.44Q6.52-25.24 9.04-19.48L9.04-19.48L9.04-19.48Q11.61-13.41 12.24-11.43L12.24-11.43L12.24-11.43Q12.69-9.86 12.96-8.64L12.96-8.64L12.96-8.64Q13.81-4.81 14.98-2.75L14.98-2.75L15.07-2.88L15.07-2.88Q16.11-12.87 16.11-27.40L16.11-27.40L16.06-27.95L16.06-27.95Q16.02-28.17 16.02-28.53L16.02-28.53L16.02-28.53Q16.02-29.47 16.65-29.47L16.65-29.47L16.65-29.47Q17.05-29.47 17.35-29.07L17.35-29.07L17.35-29.07Q17.64-28.66 17.64-28.17L17.64-28.17L17.64-25.15L17.41-24.79L17.41-24.79Q17.41-20.52 16.92-10.75L16.92-10.75L16.92-10.75Q16.43-0.99 15.97-0.14L15.97-0.14L15.21 0.04L15.21 0.09L15.16 0.04L14.71 0.18Z"></path>,<path transform="translate(-6.9125 0) rotate(5.957597706352802 6.794999999999999 775.1906362176854)" stroke="none" fill="rgb(35, 35, 35)" d="M7.65 0.72L6.57 0.32L6.57 0.32Q5.71 0.04 5.11-0.45L5.11-0.45L5.11-0.45Q4.50-0.94 3.96-1.93L3.96-1.93L3.96-1.93Q3.01-3.73 2.83-7.11L2.83-7.11L2.83-7.11Q2.75-8.64 2.75-9.81L2.75-9.81L2.75-14.94L2.75-14.94Q2.75-17.86 2.92-20.61L2.92-20.61L2.92-20.61Q3.06-22.63 3.33-24.03L3.33-24.03L3.33-24.03Q3.60-25.43 4.18-26.82L4.18-26.82L4.18-26.82Q4.81-28.26 5.58-28.84L5.58-28.84L5.58-28.84Q5.89-29.11 6.79-29.47L6.79-29.47L6.79-29.47Q7.38-29.70 7.92-29.97L7.92-29.97L9.72-29.97L9.86-29.97L9.86-29.97Q9.90-29.92 9.99-29.92L9.99-29.92L10.21-29.88L10.39-29.74L10.39-29.74Q10.53-29.61 10.53-29.56L10.53-29.56L10.53-29.56Q10.57-29.47 10.57-29.29L10.57-29.29L9.99-28.62L8.10-28.62L8.10-28.62Q7.25-28.62 6.55-27.79L6.55-27.79L6.55-27.79Q5.85-26.95 5.49-25.70L5.49-25.70L5.49-25.70Q5.13-24.57 4.91-23.04L4.91-23.04L4.91-23.04Q4.68-21.51 4.63-20.38L4.63-20.38L4.63-20.38Q4.54-18.95 4.54-18.40L4.54-18.40L4.46-18.18L4.46-18.18Q4.46-15.66 4.37-13.63L4.37-13.63L4.27-9.09L4.27-9.09Q4.27-7.11 4.54-5.44L4.54-5.44L4.54-5.44Q4.77-3.65 5.85-2.21L5.85-2.21L5.85-2.21Q6.88-0.77 9.04-0.77L9.04-0.77L9.04-0.77Q9.72-0.77 10.17-1.17L10.17-1.17L10.17-1.17Q10.84-1.17 10.84-0.67L10.84-0.67L10.84-0.67Q10.84-0.36 10.28 0.07L10.28 0.07L10.28 0.07Q9.72 0.49 9.13 0.72L9.13 0.72L7.65 0.72Z"></path></g><defs id="SvgjsDefs1196"></defs></svg></g></svg>