<svg width="512" height="512" xmlns="http://www.w3.org/2000/svg">

 <g>
  <title>background</title>
  <rect fill="none" id="canvas_background" height="402" width="582" y="-1" x="-1"/>
 </g>
 <g>
  <title>Layer 1</title>
  <path id="svg_2" fill-rule="evenodd" clip-rule="evenodd" fill="#ffffff" d="m94.202,239.51l-18.044,0l-1.615,16.085l16.51,0c10.096,0 10.848,1.922 10.848,8.481l0,2.776l-13.345,0c-13.112,0 -20.441,4.584 -20.441,17.427c0,10.89 6.281,18.762 18.085,18.762c4.323,0 10.88,-0.66 18.231,-4.725l0.694,4.064l16.091,0l0,-38.176c-0.001,-17.702 -4.859,-24.694 -27.014,-24.694zm7.699,47.264c-2.876,1.319 -5.206,2.601 -9.147,2.601c-3.672,0 -5.335,-1.827 -5.335,-5.346c0,-3.546 1.79,-4.3 5.868,-4.3l8.615,0l0,7.045l-0.001,0zm384.36,-47.264l-20.928,0l-17.692,28.01l0,-56.972l-19.304,3.214l0,88.498l19.304,0l0,-29.492l17.692,29.492l20.928,0l-19.319,-32.185l19.319,-30.565zm-153.379,-0.864c-22.693,0 -28.215,12.72 -28.215,25.836l0,12.661c0,13.111 5.521,25.829 28.215,25.829c22.679,0 28.102,-12.718 28.102,-25.829l0,-12.661c-0.001,-13.116 -5.423,-25.836 -28.102,-25.836zm8.778,40.363c0,4.467 -2.294,8.054 -8.843,8.054c-6.567,0 -8.842,-3.587 -8.842,-8.054l0,-16.267c0,-4.452 2.274,-8.031 8.842,-8.031c6.549,0 8.843,3.579 8.843,8.031l0,16.267zm-271.838,-39.499l-14.592,0l0.024,-8.051c0,-4.193 0.4,-6.441 6.425,-6.441l8.05,0l0,-16.085l-12.884,0c-15.473,0 -20.919,7.804 -20.919,20.923l0,9.654l-9.65,0l0,16.085l9.65,0l0,46.665l19.304,0l0,-46.665l12.884,0l1.708,-16.085zm57.831,25.738l0,11.266c0,15.729 8.235,26.614 28.965,26.614c4.829,0 10.541,-0.516 19.313,-2.483l0,-15.683c-10.014,1.722 -12.888,2.101 -17.706,2.101c-8.655,0 -11.269,-1.911 -11.269,-9.252l0,-13.886c0,-7.333 2.614,-9.244 11.269,-9.244c4.818,0 7.692,0.379 17.706,2.093l0,-15.681c-8.772,-1.968 -14.485,-2.489 -19.313,-2.489c-20.729,0 -28.965,10.905 -28.965,26.644zm148.94,-26.644c-4.914,0 -10.313,0.784 -14.484,2.334l0,-30.39l-19.3,3.214l0,86.883c10.503,1.615 16.092,2.453 25.602,2.453c26.354,0 30.702,-11.087 30.702,-26.288l0,-15.676c-0.001,-13.886 -3.213,-22.53 -22.52,-22.53zm3.216,38.338c0,6.032 -1.293,10.358 -10.746,10.358c-2.62,0 -4.193,0 -6.954,-0.269l0,-29.721c2.878,-1.312 5.714,-2.601 9.653,-2.601c6.568,0 8.047,3.579 8.047,8.031l0,14.202zm114.898,-38.296c-22.693,0 -28.218,12.72 -28.218,25.836l0,12.661c0,13.111 5.524,25.829 28.218,25.829c22.672,0 28.098,-12.718 28.098,-25.829l0,-12.661c0,-13.116 -5.426,-25.836 -28.098,-25.836zm8.797,40.363c0,4.467 -2.316,8.054 -8.865,8.054c-6.556,0 -8.831,-3.587 -8.831,-8.054l0,-16.267c0,-4.452 2.275,-8.031 8.831,-8.031c6.549,0 8.865,3.579 8.865,8.031l0,16.267zm-194.504,-40.405c-21.238,0 -27.358,11.272 -27.358,25.029l0,12.881c0,15.729 8.243,26.614 28.973,26.614c9.462,0 14.482,-0.516 24.12,-2.483l0,-15.683c-9.993,1.722 -14.739,2.101 -22.52,2.101c-8.651,0 -11.267,-1.911 -11.267,-9.252l0,-1.297l35.402,0l0,-12.881c0.001,-13.89 -6.106,-25.029 -27.35,-25.029zm8.046,25.029l-16.098,0l0,-2.499c0,-4.451 1.494,-8.046 8.052,-8.046c6.55,0 8.046,3.595 8.046,8.046l0,2.499z"/>
 </g>
</svg>