<svg xmlns="http://www.w3.org/2000/svg" width="28.222" height="28.122" viewBox="0 0 28.222 28.122">
  <g id="linkedin" transform="translate(-4.95 -5)">
    <g id="Group_43" data-name="Group 43" transform="translate(5.05 13.035)">
      <path id="Path_20" data-name="Path 20" d="M11.026,29.087H5V9h6.026Zm22.1,0H27.1V18.356c0-2.8-1-4.188-2.971-4.188a2.968,2.968,0,0,0-3.055,2.34V29.087H15.043s.08-18.078,0-20.087H19.8l.368,4.017h.125A6.707,6.707,0,0,1,26.21,9.647a6.238,6.238,0,0,1,5,2.011,8.692,8.692,0,0,1,1.916,6.086Z" transform="translate(-5 -9)" fill="#fff"/>
    </g>
    <g id="Group_44" data-name="Group 44" transform="translate(4.95 5)">
      <ellipse id="Ellipse_1" data-name="Ellipse 1" cx="3.113" cy="3.013" rx="3.113" ry="3.013" fill="#fff"/>
    </g>
  </g>
</svg>
